# File produced by Open Asset Import Library (http://www.assimp.sf.net)
# (assimp v6.0.0)

mtllib heli.mtl

# 720 vertex positions
v 0.37158227 0.304808885 0.99999994
v 0.576525211 0.817079544 1.00789738
v 0.576525211 0.817079365 -1.3311913e-07
v 0.37158227 0.304808736 -4.96596471e-08
v 0.576525211 0.817079365 -1.3311913e-07
v 0.576525211 0.817079544 1.00789738
v 2.56911278 1.96442473 1.09075797
v 2.56911278 1.96442461 -3.20045416e-07
v 2.56911278 1.96442461 -3.20045416e-07
v 2.56911278 1.96442473 1.09075797
v 2.93206453 3.14282751 0.857185423
v 2.93206453 3.14282727 -5.1203159e-07
v 2.93206453 3.14282727 -5.1203159e-07
v 2.93206453 3.14282751 0.857185423
v 4.20707417 3.48319197 0.857185364
v 4.20707417 3.48319173 -5.67483994e-07
v 4.20707417 3.48319173 -5.67483994e-07
v 4.20707417 3.48319197 0.857185364
v 4.71493673 4.56197739 0.857185245
v 4.71493673 4.56197739 -7.43240491e-07
v 4.71493673 4.56197739 -7.43240491e-07
v 4.71493673 4.56197739 0.857185245
v 6.00868654 4.73179913 0.857185185
v 6.00868654 4.73179913 -7.70907945e-07
v 6.00868654 4.73179913 -7.70907945e-07
v 6.00868654 4.73179913 0.857185185
v 6.29541636 5.51501942 0.453368723
v 6.29541636 5.51501942 -8.98510734e-07
v 0.576525211 0.817079544 1.00789738
v 0.37158227 0.304808885 0.99999994
v 0.37158227 0.0645284504 1
v 1.52463269 0.0596192032 1.195382
v 0.37158227 0.304808885 0.99999994
v 0.37158227 0.304808736 -4.96596471e-08
v 0.37158227 0.304808736 -4.96596471e-08
v 0.37158227 0.304808885 0.99999994
v 0.37158227 0.0645284504 1
v 0.37158227 0.304808885 0.99999994
v 0.37158227 0.304808736 -4.96596471e-08
v 0.37158227 0.0645282865 -1.05129923e-08
v 0.37158227 0.0645284504 1
v 0.37158227 0.0645282865 -1.05129923e-08
v 0.690077662 -0.137330353 2.23739551e-08
v 0.690077662 -0.137330219 0.833438158
v 0.690077662 -0.137330219 0.833438158
v 0.690077662 -0.137330353 2.23739551e-08
v 1.5204134 -0.137330353 2.23739551e-08
v 1.5204134 -0.137330219 0.833438158
v 0.37158227 0.0645284504 1
v 0.690077662 -0.137330219 0.833438158
v 1.5204134 -0.137330219 0.833438158
v 1.52463269 0.0596192032 1.195382
v 0.576525211 0.817079544 1.00789738
v 1.52463269 0.0596192032 1.195382
v 2.56623006 0.0596192218 1.29198849
v 2.56643271 0.817079604 1.53379416
v 0.576525211 0.817079544 1.00789738
v 2.56643271 0.817079604 1.53379416
v 2.56911278 1.96442473 1.09075797
v 2.56643271 0.817079604 1.53379416
v 2.56623006 0.0596192218 1.29198849
v 4.1074295 0.0596192218 1.29198849
v 4.10763168 0.817079604 1.59162831
v 2.56643271 0.817079604 1.53379416
v 4.10763168 0.817079604 1.59162831
v 2.56911278 1.96442473 1.09075797
v 4.10763168 0.817079604 1.59162831
v 4.1074295 0.0596192218 1.29198849
v 5.17772341 0.0596192218 1.29198849
v 4.92895889 0.817079663 1.66329038
v 4.92895889 0.817079663 1.66329038
v 5.17772341 0.0596192218 1.29198849
v 6.05835581 0.0596192218 1.29198849
v 6.30752468 0.817079663 1.69346869
v 6.30752468 0.817079663 1.69346869
v 6.05835581 0.0596192218 1.29198849
v 6.90332127 0.0596192218 1.29198849
v 6.90352345 0.817079604 1.55307221
v 6.90352345 0.817079604 1.55307221
v 6.90332127 0.0596192218 1.29198849
v 7.6939187 0.0596192218 1.29198849
v 7.69412088 0.817079604 1.53379416
v 7.69412088 0.817079604 1.53379416
v 7.6939187 0.0596192218 1.29198849
v 8.58657932 0.328783154 1.02508819
v 8.5867815 1.08624363 1.26689386
v 8.5867815 1.08624363 1.26689386
v 8.58657932 0.328783154 1.02508819
v 9.47845459 0.822250724 0.75661391
v 9.47865677 1.57971108 0.864029467
v 4.92895889 0.817079663 1.66329038
v 6.30752468 0.817079663 1.69346869
v 6.1862092 1.57599759 2.75408077
v 5.58887243 1.57599759 2.74100447
v 4.92895889 0.817079663 1.66329038
v 5.58887243 1.57599759 2.74100447
v 5.72530937 1.99099755 2.74100447
v 5.06539583 1.92198288 1.66329014
v 6.1862092 1.57599759 2.75408077
v 6.30752468 0.817079663 1.69346869
v 6.30752468 1.75997615 1.6655792
v 6.1862092 1.96421683 2.75408077
v 5.72530937 1.99099755 2.74100447
v 6.1862092 1.96421683 2.75408077
v 6.30752468 1.75997615 1.6655792
v 5.06539583 1.92198288 1.66329014
v 6.1862092 1.57599759 2.75408077
v 6.1862092 1.96421683 2.75408077
v 5.72530937 1.99099755 2.74100447
v 5.58887243 1.57599759 2.74100447
v 5.06539583 1.92198288 1.66329014
v 6.30752468 1.75997615 1.6655792
v 6.04864264 2.35092425 1.30386722
v 4.80651379 2.51293063 1.30157828
v 4.92895889 0.817079663 1.66329038
v 5.06539583 1.92198288 1.66329014
v 4.80651379 2.51293063 1.30157828
v 4.67007685 1.40802765 1.3015784
v 4.10763168 0.817079604 1.59162831
v 4.92895889 0.817079663 1.66329038
v 4.67007685 1.40802765 1.3015784
v 3.84874964 1.40802765 1.22991633
v 4.10763168 0.817079604 1.59162831
v 3.84874964 1.40802765 1.22991633
v 2.56911278 1.96442473 1.09075797
v 2.56911278 1.96442473 1.09075797
v 3.84874964 1.40802765 1.22991633
v 4.67007685 1.40802765 1.3015784
v 4.80651379 2.51293063 1.30157828
v 4.20707417 3.48319197 0.857185364
v 2.93206453 3.14282751 0.857185423
v 6.90352345 0.817079604 1.55307221
v 6.90352345 1.67461717 1.55307209
v 6.90352345 1.67461717 1.55307209
v 6.30752468 1.75997615 1.6655792
v 6.30752468 1.75997615 1.6655792
v 6.30752468 0.817079663 1.69346869
v 6.90352345 0.817079604 1.55307221
v 7.69412088 0.817079604 1.53379416
v 7.69412088 1.67461717 1.53379405
v 6.90352345 1.67461717 1.55307209
v 6.30752468 1.75997615 1.6655792
v 6.90352345 1.67461717 1.55307209
v 6.90352345 1.67461717 1.55307209
v 6.30752468 1.75997615 1.6655792
v 6.90352345 1.67461717 1.55307209
v 7.69412088 1.67461717 1.53379405
v 7.69412088 1.67461717 1.53379405
v 6.90352345 1.67461717 1.55307209
v 6.30752468 1.75997615 1.6655792
v 6.30752468 1.75997615 1.6655792
v 6.90352345 1.67461717 1.55307209
v 6.90352345 2.25646615 1.41604853
v 6.04864264 2.35092425 1.30386722
v 6.90352345 1.67461717 1.55307209
v 7.69412088 1.67461717 1.53379405
v 7.69412088 2.25646615 1.39677048
v 6.90352345 2.25646615 1.41604853
v 6.90352345 2.25646615 1.41604853
v 7.69412088 2.25646615 1.39677048
v 7.69412088 2.99894714 1.12068021
v 6.90352345 2.99894714 1.13995826
v 6.29541636 5.51501942 -8.98510734e-07
v 6.29541636 5.51501942 0.453368723
v 7.07277584 5.51501942 0.453368723
v 7.07277584 5.51501942 -8.98510734e-07
v 7.07277584 5.51501942 -8.98510734e-07
v 7.07277584 5.51501942 0.453368723
v 7.43685102 4.72813272 0.673635066
v 7.43685102 4.72813272 -7.70310635e-07
v 7.43685102 4.72813272 0.673635066
v 9.04985237 3.18790483 0.268924832
v 9.04985237 3.18790483 -5.19375646e-07
v 7.43685102 4.72813272 -7.70310635e-07
v 7.43685102 4.72813272 0.673635066
v 7.69412088 2.99894714 1.12068021
v 9.04985237 3.18790483 0.268924832
v 6.90352345 2.25646615 1.41604853
v 6.90352345 2.99894714 1.13995826
v 6.04864264 2.35092425 1.30386722
v 4.71493673 4.56197739 0.857185245
v 4.20707417 3.48319197 0.857185364
v 4.80651379 2.51293063 1.30157828
v 6.04864264 2.35092425 1.30386722
v 6.90352345 2.99894714 1.13995826
v 6.00868654 4.73179913 0.857185185
v 7.69412088 2.99894714 1.12068021
v 7.43685102 4.72813272 0.673635066
v 6.00868654 4.73179913 0.857185185
v 6.90352345 2.99894714 1.13995826
v 6.00868654 4.73179913 0.857185185
v 7.43685102 4.72813272 0.673635066
v 7.07277584 5.51501942 0.453368723
v 6.29541636 5.51501942 0.453368723
v 8.5867815 1.08624363 1.26689386
v 8.5867815 1.70940757 1.26689374
v 7.69412088 1.67461717 1.53379405
v 7.69412088 0.817079604 1.53379416
v 8.5867815 1.08624363 1.26689386
v 9.47865677 1.57971108 0.864029467
v 9.47865677 2.2028749 0.864029348
v 9.47865677 2.68643332 0.864029288
v 8.5867815 2.43331313 1.26689363
v 8.5867815 1.70940757 1.26689374
v 7.69412088 1.67461717 1.53379405
v 8.5867815 1.70940757 1.26689374
v 8.5867815 2.43331313 1.26689363
v 7.69412088 2.25646615 1.39677048
v 7.69412088 2.99894714 1.12068021
v 8.5867815 2.43331313 1.26689363
v 9.47865677 2.68643332 0.864029288
v 9.04985237 3.18790483 0.268924832
v 7.69412088 2.99894714 1.12068021
v 7.69412088 2.25646615 1.39677048
v 8.5867815 2.43331313 1.26689363
v 1.5204134 -0.137330219 0.833438158
v 1.5204134 -0.137330353 2.23739551e-08
v 1.83348024 -0.395487875 6.44331521e-08
v 1.83348024 -0.395487726 0.833438218
v 1.83348024 -0.395487726 0.833438218
v 1.83348024 -0.395487875 6.44331521e-08
v 2.88431621 -0.395487875 6.44331521e-08
v 2.88431621 -0.395487726 0.833438218
v 2.88431621 -0.395487726 0.833438218
v 2.88431621 -0.395487875 6.44331521e-08
v 3.60179067 -0.164429739 2.67890066e-08
v 3.60179067 -0.16442959 0.943985581
v 3.60179067 -0.16442959 0.943985581
v 3.60179067 -0.164429739 2.67890066e-08
v 5.59704256 -0.164429739 2.67890066e-08
v 5.59704256 -0.16442959 0.943985581
v 5.59704256 -0.16442959 0.943985581
v 5.59704256 -0.164429739 2.67890066e-08
v 7.69487429 -0.0172704756 2.8137177e-09
v 7.69487429 -0.017270321 0.943985581
v 7.69487429 -0.017270321 0.943985581
v 7.69487429 -0.0172704756 2.8137177e-09
v 8.60881042 0.277048111 -4.51368685e-08
v 8.60881042 0.27704826 0.943985581
v 8.60881042 0.27704826 0.943985581
v 8.60881042 0.277048111 -4.51368685e-08
v 9.48402119 0.788232863 -1.28419444e-07
v 9.48402119 0.788232982 0.687241614
v 8.58657932 0.328783154 1.02508819
v 8.60881042 0.27704826 0.943985581
v 9.48402119 0.788232982 0.687241614
v 9.47845459 0.822250724 0.75661391
v 7.6939187 0.0596192218 1.29198849
v 7.69487429 -0.017270321 0.943985581
v 8.60881042 0.27704826 0.943985581
v 8.58657932 0.328783154 1.02508819
v 6.05835581 0.0596192218 1.29198849
v 5.59704256 -0.16442959 0.943985581
v 7.69487429 -0.017270321 0.943985581
v 7.6939187 0.0596192218 1.29198849
v 6.90332127 0.0596192218 1.29198849
v 4.1074295 0.0596192218 1.29198849
v 3.60179067 -0.16442959 0.943985581
v 5.59704256 -0.16442959 0.943985581
v 6.05835581 0.0596192218 1.29198849
v 5.17772341 0.0596192218 1.29198849
v 1.5204134 -0.137330219 0.833438158
v 1.83348024 -0.395487726 0.833438218
v 2.88431621 -0.395487726 0.833438218
v 3.60179067 -0.16442959 0.943985581
v 4.1074295 0.0596192218 1.29198849
v 2.56623006 0.0596192218 1.29198849
v 1.52463269 0.0596192032 1.195382
v 9.85787678 3.50350523 -5.70793475e-07
v 9.85787678 3.50350523 0.100174688
v 10.5910339 5.2195673 0.12691389
v 10.5910339 5.2195673 -8.503755e-07
v 10.5910339 5.2195673 -8.503755e-07
v 10.5910339 5.2195673 0.12691389
v 11.1427908 5.31302738 0.126913875
v 11.1427908 5.31302738 -8.65602033e-07
v 11.1427908 5.31302738 -8.65602033e-07
v 11.1427908 5.31302738 0.126913875
v 11.35672 2.40683293 0.126914352
v 11.35672 2.40683293 -3.92122871e-07
v 11.35672 2.40683293 -3.92122871e-07
v 11.35672 2.40683293 0.126914352
v 11.0634336 2.01892781 0.203646958
v 11.0634336 2.01892781 -3.28925097e-07
v 11.0634336 2.01892781 -3.28925097e-07
v 11.0634336 2.01892781 0.203646958
v 10.7905893 1.78698123 0.246018425
v 10.7905893 1.78698123 -2.91136217e-07
v 10.7905893 1.78698123 -2.91136217e-07
v 10.7905893 1.78698123 0.246018425
v 10.5203915 1.56042194 0.268277943
v 10.5203915 1.56042194 -2.54225e-07
v 10.1537523 1.29522109 0.305889994
v 10.1537523 1.29522109 -2.11018303e-07
v 10.5203915 1.56042194 -2.54225e-07
v 10.5203915 1.56042194 0.268277943
v 10.149106 2.52052188 0.575418591
v 10.149106 1.98076487 0.575418711
v 10.5918055 2.07883263 0.398612469
v 10.5918055 2.5255363 0.39861238
v 10.5918055 3.04445481 0.398612291
v 10.149106 3.14753699 0.575418472
v 10.5918055 2.5255363 0.39861238
v 10.5918055 2.07883263 0.398612469
v 11.1402655 2.56933331 0.192939833
v 11.1402655 2.89376736 0.192939773
v 11.1402655 3.27065015 0.192939714
v 10.5918055 3.04445481 0.398612291
v 10.149106 3.14753699 0.575418472
v 10.5918055 3.04445481 0.398612291
v 10.5910339 5.2195673 0.12691389
v 9.85787678 3.50350523 0.100174688
v 10.5910339 5.2195673 0.12691389
v 10.5918055 3.04445481 0.398612291
v 11.1402655 3.27065015 0.192939714
v 11.1427908 5.31302738 0.126913875
v 11.1427908 5.31302738 0.126913875
v 11.1402655 3.27065015 0.192939714
v 11.1402655 2.89376736 0.192939773
v 11.1402655 2.56933331 0.192939833
v 11.35672 2.40683293 0.126914352
v 10.1489305 1.32468593 0.365977257
v 10.1537523 1.29522109 0.305889994
v 10.5203915 1.56042194 0.268277943
v 10.1489305 1.32468593 0.365977257
v 10.5203915 1.56042194 0.268277943
v 10.5918055 2.07883263 0.398612469
v 10.149106 1.98076487 0.575418711
v 11.0634336 2.01892781 0.203646958
v 11.35672 2.40683293 0.126914352
v 11.1402655 2.56933331 0.192939833
v 10.5918055 2.07883263 0.398612469
v 10.5203915 1.56042194 0.268277943
v 10.7905893 1.78698123 0.246018425
v 9.04985237 3.18790483 0.268924832
v 9.85787678 3.50350523 0.100174688
v 9.85787678 3.50350523 -5.70793475e-07
v 9.04985237 3.18790483 -5.19375646e-07
v 9.47865677 2.68643332 0.864029288
v 10.149106 3.14753699 0.575418472
v 9.85787678 3.50350523 0.100174688
v 9.04985237 3.18790483 0.268924832
v 9.47865677 2.2028749 0.864029348
v 9.47865677 1.57971108 0.864029467
v 10.149106 1.98076487 0.575418711
v 10.149106 2.52052188 0.575418591
v 10.149106 3.14753699 0.575418472
v 9.47865677 2.68643332 0.864029288
v 9.47865677 1.57971108 0.864029467
v 9.47845459 0.822250724 0.75661391
v 10.1489305 1.32468593 0.365977257
v 10.149106 1.98076487 0.575418711
v 9.48402119 0.788232982 0.687241614
v 9.48402119 0.788232863 -1.28419444e-07
v 10.1537523 1.29522109 -2.11018303e-07
v 10.1537523 1.29522109 0.305889994
v 9.47845459 0.822250724 0.75661391
v 9.48402119 0.788232982 0.687241614
v 10.1537523 1.29522109 0.305889994
v 10.1489305 1.32468593 0.365977257
v 0.37158227 0.304808587 -1
v 0.37158227 0.304808736 -4.96596471e-08
v 0.576525211 0.817079365 -1.3311913e-07
v 0.576525211 0.817079186 -1.00789762
v 0.576525211 0.817079365 -1.3311913e-07
v 2.56911278 1.96442461 -3.20045416e-07
v 2.56911278 1.96442449 -1.09075868
v 0.576525211 0.817079186 -1.00789762
v 2.56911278 1.96442461 -3.20045416e-07
v 2.93206453 3.14282727 -5.1203159e-07
v 2.93206453 3.14282703 -0.857186496
v 2.56911278 1.96442449 -1.09075868
v 2.93206453 3.14282727 -5.1203159e-07
v 4.20707417 3.48319173 -5.67483994e-07
v 4.20707417 3.48319149 -0.857186556
v 2.93206453 3.14282703 -0.857186496
v 4.20707417 3.48319173 -5.67483994e-07
v 4.71493673 4.56197739 -7.43240491e-07
v 4.71493673 4.56197739 -0.857186675
v 4.20707417 3.48319149 -0.857186556
v 4.71493673 4.56197739 -7.43240491e-07
v 6.00868654 4.73179913 -7.70907945e-07
v 6.00868654 4.73179913 -0.857186735
v 4.71493673 4.56197739 -0.857186675
v 6.00868654 4.73179913 -7.70907945e-07
v 6.29541636 5.51501942 -8.98510734e-07
v 6.29541636 5.51501942 -0.453370512
v 6.00868654 4.73179913 -0.857186735
v 0.576525211 0.817079186 -1.00789762
v 1.52463269 0.0596188158 -1.195382
v 0.37158227 0.0645281225 -1
v 0.37158227 0.304808587 -1
v 0.37158227 0.304808587 -1
v 0.37158227 0.304808587 -1
v 0.37158227 0.304808736 -4.96596471e-08
v 0.37158227 0.304808736 -4.96596471e-08
v 0.37158227 0.0645281225 -1
v 0.37158227 0.0645282865 -1.05129923e-08
v 0.37158227 0.304808736 -4.96596471e-08
v 0.37158227 0.304808587 -1
v 0.37158227 0.0645281225 -1
v 0.690077662 -0.137330487 -0.833438158
v 0.690077662 -0.137330353 2.23739551e-08
v 0.37158227 0.0645282865 -1.05129923e-08
v 0.690077662 -0.137330487 -0.833438158
v 1.5204134 -0.137330487 -0.833438158
v 1.5204134 -0.137330353 2.23739551e-08
v 0.690077662 -0.137330353 2.23739551e-08
v 0.37158227 0.0645281225 -1
v 1.52463269 0.0596188158 -1.195382
v 1.5204134 -0.137330487 -0.833438158
v 0.690077662 -0.137330487 -0.833438158
v 0.576525211 0.817079186 -1.00789762
v 2.56643271 0.817079127 -1.5337944
v 2.56623006 0.0596187972 -1.29198849
v 1.52463269 0.0596188158 -1.195382
v 0.576525211 0.817079186 -1.00789762
v 2.56911278 1.96442449 -1.09075868
v 2.56643271 0.817079127 -1.5337944
v 2.56643271 0.817079127 -1.5337944
v 4.10763168 0.817079127 -1.59162855
v 4.1074295 0.0596187972 -1.29198849
v 2.56623006 0.0596187972 -1.29198849
v 2.56643271 0.817079127 -1.5337944
v 2.56911278 1.96442449 -1.09075868
v 4.10763168 0.817079127 -1.59162855
v 4.10763168 0.817079127 -1.59162855
v 4.92895889 0.817079067 -1.66329062
v 5.17772341 0.0596187972 -1.29198849
v 4.1074295 0.0596187972 -1.29198849
v 4.92895889 0.817079067 -1.66329062
v 6.30752468 0.817079067 -1.69346893
v 6.05835581 0.0596187972 -1.29198849
v 5.17772341 0.0596187972 -1.29198849
v 6.30752468 0.817079067 -1.69346893
v 6.90352345 0.817079127 -1.55307245
v 6.90332127 0.0596187972 -1.29198849
v 6.05835581 0.0596187972 -1.29198849
v 6.90352345 0.817079127 -1.55307245
v 7.69412088 0.817079127 -1.5337944
v 7.6939187 0.0596187972 -1.29198849
v 6.90332127 0.0596187972 -1.29198849
v 7.69412088 0.817079127 -1.5337944
v 8.5867815 1.08624315 -1.2668941
v 8.58657932 0.328782797 -1.02508819
v 7.6939187 0.0596187972 -1.29198849
v 8.5867815 1.08624315 -1.2668941
v 9.47865677 1.57971084 -0.864029944
v 9.47845459 0.822250485 -0.756614149
v 8.58657932 0.328782797 -1.02508819
v 4.92895889 0.817079067 -1.66329062
v 5.58887243 1.57599664 -2.74100494
v 6.1862092 1.57599664 -2.75408125
v 6.30752468 0.817079067 -1.69346893
v 4.92895889 0.817079067 -1.66329062
v 5.06539583 1.92198241 -1.66329086
v 5.72530937 1.9909966 -2.74100494
v 5.58887243 1.57599664 -2.74100494
v 6.1862092 1.57599664 -2.75408125
v 6.1862092 1.96421587 -2.75408125
v 6.30752468 1.75997567 -1.66557968
v 6.30752468 0.817079067 -1.69346893
v 5.72530937 1.9909966 -2.74100494
v 5.06539583 1.92198241 -1.66329086
v 6.30752468 1.75997567 -1.66557968
v 6.1862092 1.96421587 -2.75408125
v 6.1862092 1.57599664 -2.75408125
v 5.58887243 1.57599664 -2.74100494
v 5.72530937 1.9909966 -2.74100494
v 6.1862092 1.96421587 -2.75408125
v 5.06539583 1.92198241 -1.66329086
v 4.80651379 2.51293015 -1.301579
v 6.04864264 2.35092378 -1.30386794
v 6.30752468 1.75997567 -1.66557968
v 4.92895889 0.817079067 -1.66329062
v 4.67007685 1.40802717 -1.30157888
v 4.80651379 2.51293015 -1.301579
v 5.06539583 1.92198241 -1.66329086
v 4.10763168 0.817079127 -1.59162855
v 3.84874964 1.40802717 -1.22991681
v 4.67007685 1.40802717 -1.30157888
v 4.92895889 0.817079067 -1.66329062
v 4.10763168 0.817079127 -1.59162855
v 2.56911278 1.96442449 -1.09075868
v 3.84874964 1.40802717 -1.22991681
v 2.56911278 1.96442449 -1.09075868
v 2.93206453 3.14282703 -0.857186496
v 4.20707417 3.48319149 -0.857186556
v 4.80651379 2.51293015 -1.301579
v 4.67007685 1.40802717 -1.30157888
v 3.84874964 1.40802717 -1.22991681
v 6.90352345 0.817079127 -1.55307245
v 6.30752468 0.817079067 -1.69346893
v 6.30752468 1.75997567 -1.66557968
v 6.30752468 1.75997567 -1.66557968
v 6.90352345 1.67461669 -1.55307257
v 6.90352345 1.67461669 -1.55307257
v 6.90352345 0.817079127 -1.55307245
v 6.90352345 1.67461669 -1.55307257
v 7.69412088 1.67461669 -1.53379452
v 7.69412088 0.817079127 -1.5337944
v 6.30752468 1.75997567 -1.66557968
v 6.30752468 1.75997567 -1.66557968
v 6.90352345 1.67461669 -1.55307257
v 6.90352345 1.67461669 -1.55307257
v 6.90352345 1.67461669 -1.55307257
v 6.90352345 1.67461669 -1.55307257
v 7.69412088 1.67461669 -1.53379452
v 7.69412088 1.67461669 -1.53379452
v 6.30752468 1.75997567 -1.66557968
v 6.04864264 2.35092378 -1.30386794
v 6.90352345 2.25646567 -1.41604924
v 6.90352345 1.67461669 -1.55307257
v 6.30752468 1.75997567 -1.66557968
v 6.90352345 1.67461669 -1.55307257
v 6.90352345 2.25646567 -1.41604924
v 7.69412088 2.25646567 -1.39677119
v 7.69412088 1.67461669 -1.53379452
v 6.90352345 2.25646567 -1.41604924
v 6.90352345 2.99894667 -1.13995922
v 7.69412088 2.99894667 -1.12068117
v 7.69412088 2.25646567 -1.39677119
v 6.29541636 5.51501942 -8.98510734e-07
v 7.07277584 5.51501942 -8.98510734e-07
v 7.07277584 5.51501942 -0.453370512
v 6.29541636 5.51501942 -0.453370512
v 7.07277584 5.51501942 -8.98510734e-07
v 7.43685102 4.72813272 -7.70310635e-07
v 7.43685102 4.72813272 -0.673636615
v 7.07277584 5.51501942 -0.453370512
v 7.43685102 4.72813272 -0.673636615
v 7.43685102 4.72813272 -7.70310635e-07
v 9.04985237 3.18790483 -5.19375646e-07
v 9.04985237 3.18790483 -0.268925846
v 7.43685102 4.72813272 -0.673636615
v 9.04985237 3.18790483 -0.268925846
v 7.69412088 2.99894667 -1.12068117
v 6.90352345 2.25646567 -1.41604924
v 6.04864264 2.35092378 -1.30386794
v 6.90352345 2.99894667 -1.13995922
v 4.71493673 4.56197739 -0.857186675
v 6.00868654 4.73179913 -0.857186735
v 6.90352345 2.99894667 -1.13995922
v 6.04864264 2.35092378 -1.30386794
v 4.80651379 2.51293015 -1.301579
v 4.20707417 3.48319149 -0.857186556
v 7.69412088 2.99894667 -1.12068117
v 6.90352345 2.99894667 -1.13995922
v 6.00868654 4.73179913 -0.857186735
v 7.43685102 4.72813272 -0.673636615
v 6.00868654 4.73179913 -0.857186735
v 6.29541636 5.51501942 -0.453370512
v 7.07277584 5.51501942 -0.453370512
v 7.43685102 4.72813272 -0.673636615
v 8.5867815 1.08624315 -1.2668941
v 7.69412088 0.817079127 -1.5337944
v 7.69412088 1.67461669 -1.53379452
v 8.5867815 1.70940709 -1.26689422
v 8.5867815 1.08624315 -1.2668941
v 8.5867815 1.70940709 -1.26689422
v 8.5867815 2.43331265 -1.26689434
v 9.47865677 2.68643284 -0.864030123
v 9.47865677 2.20287442 -0.864030063
v 9.47865677 1.57971084 -0.864029944
v 7.69412088 1.67461669 -1.53379452
v 7.69412088 2.25646567 -1.39677119
v 8.5867815 2.43331265 -1.26689434
v 8.5867815 1.70940709 -1.26689422
v 7.69412088 2.99894667 -1.12068117
v 9.04985237 3.18790483 -0.268925846
v 9.47865677 2.68643284 -0.864030123
v 8.5867815 2.43331265 -1.26689434
v 7.69412088 2.99894667 -1.12068117
v 8.5867815 2.43331265 -1.26689434
v 7.69412088 2.25646567 -1.39677119
v 1.5204134 -0.137330487 -0.833438158
v 1.83348024 -0.395488024 -0.833438098
v 1.83348024 -0.395487875 6.44331521e-08
v 1.5204134 -0.137330353 2.23739551e-08
v 1.83348024 -0.395488024 -0.833438098
v 2.88431621 -0.395488024 -0.833438098
v 2.88431621 -0.395487875 6.44331521e-08
v 1.83348024 -0.395487875 6.44331521e-08
v 2.88431621 -0.395488024 -0.833438098
v 3.60179067 -0.164429888 -0.943985581
v 3.60179067 -0.164429739 2.67890066e-08
v 2.88431621 -0.395487875 6.44331521e-08
v 3.60179067 -0.164429888 -0.943985581
v 5.59704256 -0.164429888 -0.943985581
v 5.59704256 -0.164429739 2.67890066e-08
v 3.60179067 -0.164429739 2.67890066e-08
v 5.59704256 -0.164429888 -0.943985581
v 7.69487429 -0.0172706302 -0.943985581
v 7.69487429 -0.0172704756 2.8137177e-09
v 5.59704256 -0.164429739 2.67890066e-08
v 7.69487429 -0.0172706302 -0.943985581
v 8.60881042 0.277047962 -0.943985701
v 8.60881042 0.277048111 -4.51368685e-08
v 7.69487429 -0.0172704756 2.8137177e-09
v 8.60881042 0.277047962 -0.943985701
v 9.48402119 0.788232744 -0.687241852
v 9.48402119 0.788232863 -1.28419444e-07
v 8.60881042 0.277048111 -4.51368685e-08
v 8.58657932 0.328782797 -1.02508819
v 9.47845459 0.822250485 -0.756614149
v 9.48402119 0.788232744 -0.687241852
v 8.60881042 0.277047962 -0.943985701
v 7.6939187 0.0596187972 -1.29198849
v 8.58657932 0.328782797 -1.02508819
v 8.60881042 0.277047962 -0.943985701
v 7.69487429 -0.0172706302 -0.943985581
v 6.05835581 0.0596187972 -1.29198849
v 6.90332127 0.0596187972 -1.29198849
v 7.6939187 0.0596187972 -1.29198849
v 7.69487429 -0.0172706302 -0.943985581
v 5.59704256 -0.164429888 -0.943985581
v 4.1074295 0.0596187972 -1.29198849
v 5.17772341 0.0596187972 -1.29198849
v 6.05835581 0.0596187972 -1.29198849
v 5.59704256 -0.164429888 -0.943985581
v 3.60179067 -0.164429888 -0.943985581
v 1.5204134 -0.137330487 -0.833438158
v 1.52463269 0.0596188158 -1.195382
v 2.56623006 0.0596187972 -1.29198849
v 4.1074295 0.0596187972 -1.29198849
v 3.60179067 -0.164429888 -0.943985581
v 2.88431621 -0.395488024 -0.833438098
v 1.83348024 -0.395488024 -0.833438098
v 9.85787678 3.50350523 -5.70793475e-07
v 10.5910339 5.2195673 -8.503755e-07
v 10.5910339 5.2195673 -0.126915589
v 9.85787678 3.50350523 -0.100175835
v 10.5910339 5.2195673 -8.503755e-07
v 11.1427908 5.31302738 -8.65602033e-07
v 11.1427908 5.31302738 -0.126915604
v 10.5910339 5.2195673 -0.126915589
v 11.1427908 5.31302738 -8.65602033e-07
v 11.35672 2.40683293 -3.92122871e-07
v 11.35672 2.40683293 -0.126915127
v 11.1427908 5.31302738 -0.126915604
v 11.35672 2.40683293 -3.92122871e-07
v 11.0634336 2.01892781 -3.28925097e-07
v 11.0634336 2.01892781 -0.203647614
v 11.35672 2.40683293 -0.126915127
v 11.0634336 2.01892781 -3.28925097e-07
v 10.7905893 1.78698123 -2.91136217e-07
v 10.7905893 1.78698123 -0.246019021
v 11.0634336 2.01892781 -0.203647614
v 10.7905893 1.78698123 -2.91136217e-07
v 10.5203915 1.56042194 -2.54225e-07
v 10.5203915 1.56042194 -0.26827848
v 10.7905893 1.78698123 -0.246019021
v 10.1537523 1.29522109 -0.305890411
v 10.5203915 1.56042194 -0.26827848
v 10.5203915 1.56042194 -2.54225e-07
v 10.1537523 1.29522109 -2.11018303e-07
v 10.149106 2.52052188 -0.575419426
v 10.149106 3.14753699 -0.575419545
v 10.5918055 3.04445481 -0.398613304
v 10.5918055 2.5255363 -0.398613214
v 10.5918055 2.07883263 -0.398613125
v 10.149106 1.98076463 -0.575419307
v 10.5918055 2.5255363 -0.398613214
v 10.5918055 3.04445481 -0.398613304
v 11.1402655 3.27065015 -0.192940786
v 11.1402655 2.89376736 -0.192940727
v 11.1402655 2.56933331 -0.192940667
v 10.5918055 2.07883263 -0.398613125
v 10.149106 3.14753699 -0.575419545
v 9.85787678 3.50350523 -0.100175835
v 10.5910339 5.2195673 -0.126915589
v 10.5918055 3.04445481 -0.398613304
v 10.5910339 5.2195673 -0.126915589
v 11.1427908 5.31302738 -0.126915604
v 11.1402655 3.27065015 -0.192940786
v 10.5918055 3.04445481 -0.398613304
v 11.1427908 5.31302738 -0.126915604
v 11.35672 2.40683293 -0.126915127
v 11.1402655 2.56933331 -0.192940667
v 11.1402655 2.89376736 -0.192940727
v 11.1402655 3.27065015 -0.192940786
v 10.1489305 1.32468569 -0.365977675
v 10.5203915 1.56042194 -0.26827848
v 10.1537523 1.29522109 -0.305890411
v 10.1489305 1.32468569 -0.365977675
v 10.149106 1.98076463 -0.575419307
v 10.5918055 2.07883263 -0.398613125
v 10.5203915 1.56042194 -0.26827848
v 11.0634336 2.01892781 -0.203647614
v 10.7905893 1.78698123 -0.246019021
v 10.5203915 1.56042194 -0.26827848
v 10.5918055 2.07883263 -0.398613125
v 11.1402655 2.56933331 -0.192940667
v 11.35672 2.40683293 -0.126915127
v 9.04985237 3.18790483 -0.268925846
v 9.04985237 3.18790483 -5.19375646e-07
v 9.85787678 3.50350523 -5.70793475e-07
v 9.85787678 3.50350523 -0.100175835
v 9.47865677 2.68643284 -0.864030123
v 9.04985237 3.18790483 -0.268925846
v 9.85787678 3.50350523 -0.100175835
v 10.149106 3.14753699 -0.575419545
v 9.47865677 2.20287442 -0.864030063
v 9.47865677 2.68643284 -0.864030123
v 10.149106 3.14753699 -0.575419545
v 10.149106 2.52052188 -0.575419426
v 10.149106 1.98076463 -0.575419307
v 9.47865677 1.57971084 -0.864029944
v 9.47865677 1.57971084 -0.864029944
v 10.149106 1.98076463 -0.575419307
v 10.1489305 1.32468569 -0.365977675
v 9.47845459 0.822250485 -0.756614149
v 9.48402119 0.788232744 -0.687241852
v 10.1537523 1.29522109 -0.305890411
v 10.1537523 1.29522109 -2.11018303e-07
v 9.48402119 0.788232863 -1.28419444e-07
v 9.47845459 0.822250485 -0.756614149
v 10.1489305 1.32468569 -0.365977675
v 10.1537523 1.29522109 -0.305890411
v 9.48402119 0.788232744 -0.687241852

# 186 UV coordinates
vt 0.938382506 0.452665716 0
vt 0.998454154 0.451654106 0
vt 0.998454154 0.543190598 0
vt 0.938382506 0.543484986 0
vt 0.863413632 0.33940351 0
vt 0.753322899 0.338451952 0
vt 0.744272172 0.144384637 0
vt 0.863413632 0.145414457 0
vt 0.818922043 0.33940351 0
vt 0.937824249 0.33940354 0
vt 0.912392259 0.451654136 0
vt 0.818951488 0.451654136 0
vt 0.957047045 0.263853043 0
vt 0.863413632 0.263604879 0
vt 0.863413692 0.144384637 0
vt 0.957047045 0.144632727 0
vt 0.837708235 0.809424937 0
vt 0.744272172 0.808643222 0
vt 0.744272172 0.701219201 0
vt 0.837708235 0.702001035 0
vt 0.954520047 0.813510716 0
vt 0.860886216 0.813524008 0
vt 0.860886216 0.694737613 0
vt 0.954520047 0.694724202 0
vt 0.909002483 0.0778490305 0
vt 0.909002483 0 0
vt 1 0.0363843851 0
vt 1 0.0775590912 0
vt 0.516445816 0.017782161 0
vt 0.571571887 0 0
vt 0.597493172 0.000337062724 0
vt 0.601417959 0.103118435 0
vt 0 0 0
vt 0.97963661 0.785983741 0
vt 0.954520106 0.785543501 0
vt 0.954520106 0.694724202 0
vt 0.97963661 0.695164442 0
vt 0.635002375 0 0
vt 0.744272113 1.62786353e-08 0
vt 0.744272113 0.0326243117 0
vt 0.653202534 0.0326242894 0
vt 0.744272113 0.105892636 0
vt 0.653202534 0.105892606 0
vt 0.613653004 0.101854406 0
vt 0.603096724 0.196654588 0
vt 0.525584459 0.193504572 0
vt 0.394111097 0.19599615 0
vt 0.603096724 0.336300105 0
vt 0.526589453 0.332646459 0
vt 0.603096724 0.433277667 0
vt 0.527834773 0.40644145 0
vt 0.603096724 0.513070285 0
vt 0.528359175 0.531088233 0
vt 0.603096783 0.589631259 0
vt 0.525919497 0.586313367 0
vt 0.603096783 0.661266029 0
vt 0.525584519 0.658115983 0
vt 0.569421649 0.744095325 0
vt 0.491909355 0.74094522 0
vt 0.511521459 0.826552451 0
vt 0.431673855 0.824572742 0
vt 0.860886157 0.579544365 0
vt 0.860886157 0.701219201 0
vt 0.744272232 0.675706327 0
vt 0.744272172 0.62298429 0
vt 0.788578689 0 0
vt 0.909002483 0.083747156 0
vt 0.909002483 0.123507187 0
vt 0.786952019 0.099840194 0
vt 0.920114696 0.68800509 0
vt 0.860886216 0.579544365 0
vt 0.961144209 0.593377292 0
vt 0.961144209 0.694724202 0
vt 0.820352495 0.501785159 0
vt 0.818922043 0.460559517 0
vt 0.938382447 0.451654106 0
vt 0.938382387 0.561655521 0
vt 0.95382154 0.131859243 0
vt 0.911943316 0.131192386 0
vt 0.909002483 0.089498505 0
vt 0.95382154 0.0778490305 0
vt 0.408638746 0.417253822 0
vt 0.426155657 0.530008376 0
vt 0.356119186 0.508872569 0
vt 0.338602245 0.396118015 0
vt 0.745898843 0.0445444025 0
vt 0.457798243 0.385305613 0
vt 0.456552953 0.311510593 0
vt 0.226209059 0.344312757 0
vt 0.262927264 0.229263693 0
vt 0.433409095 0.585110426 0
vt 0.433074087 0.656913102 0
vt 0.368258625 0.585487545 0
vt 0.367923647 0.657290161 0
vt 0.283027738 0.658653021 0
vt 0.283362776 0.586850345 0
vt 0.912936807 0.333956927 0
vt 0.863413692 0.334102601 0
vt 0.863413632 0.263998806 0
vt 0.912936747 0.263853043 0
vt 0.818922043 0.578621566 0
vt 0.769430161 0.579544365 0
vt 0.744272172 0.503797293 0
vt 0.817809224 0.502426147 0
vt 0.789564908 0.339950919 0
vt 0.818921983 0.33940351 0
vt 0.0887163356 0.636809707 0
vt 0.247842059 0.788646162 0
vt 0.109830596 0.388816088 0
vt 0.0915104002 0.505802453 0
vt 5.2103875e-08 0.604635775 0
vt 0 0.53420049 0
vt 0.424682945 0.740071058 0
vt 0.364447504 0.823698521 0
vt 0.312281638 0.823020279 0
vt 0.346588641 0.739055634 0
vt 0.744272113 0.139298677 0
vt 0.653202534 0.139298663 0
vt 0.744272053 0.23202379 0
vt 0.653202474 0.232023761 0
vt 0.744272113 0.290158927 0
vt 0.641122997 0.290158927 0
vt 0.744272053 0.46621877 0
vt 0.641122937 0.466218829 0
vt 0.744272053 0.648034573 0
vt 0.641123056 0.648034573 0
vt 0.744272053 0.722088754 0
vt 0.641122997 0.722088754 0
vt 0.744272113 0.787869275 0
vt 0.669177294 0.787869394 0
vt 0.632260919 0.71896863 0
vt 0.661597013 0.786616325 0
vt 0.603096724 0.646228433 0
vt 0.603096843 0.501907408 0
vt 0.603096783 0.57646662 0
vt 0.603096843 0.329758823 0
vt 0.603096783 0.424200952 0
vt 0.603096843 0.193764329 0
vt 0.951658666 0.451654106 0
vt 0.940738976 0.451585859 0
vt 0.937824249 0.28267023 0
vt 0.951658666 0.282756597 0
vt 0.837708235 0.701219201 0
vt 0.85157162 0.701228321 0
vt 0.85157162 0.752150178 0
vt 0.837708175 0.752141058 0
vt 0.965752602 0.144384637 0
vt 0.979603946 0.144743681 0
vt 0.97089839 0.408713609 0
vt 0.957047045 0.40835464 0
vt 0.979603887 0.439262241 0
vt 0.95737803 0.438686013 0
vt 0.744272113 0.899675369 0
vt 0.722019672 0.89967531 0
vt 0.717389703 0.880794108 0
vt 0.744272113 0.880794108 0
vt 0.714957416 0.862025559 0
vt 0.744272053 0.862025499 0
vt 0.710847497 0.835612476 0
vt 0.744272053 0.835612476 0
vt 0.325164735 0.886514723 0
vt 0.383393317 0.887271941 0
vt 0.36974147 0.928786397 0
vt 0.321551472 0.928159714 0
vt 0.265570939 0.927431822 0
vt 0.257522911 0.885635257 0
vt 0.313252628 0.979584575 0
vt 0.278252989 0.979129374 0
vt 0.237595245 0.978600681 0
vt 0.0262003299 0.92667681 0
vt 0.210862979 0.862886786 0
vt 0.0161179695 0.976539493 0
vt 0.329635739 1 0
vt 0.704281807 0.834527075 0
vt 0.450531036 0.890000224 0
vt 0.42340228 0.924178004 0
vt 0.372815967 0.973301828 0
vt 0.398574501 0.948536217 0
vt 0.961144149 0.656342268 0
vt 0.979012191 0.579544365 0
vt 0.98995477 0.579544365 0
vt 0.990519881 0.656342268 0
vt 0.859460354 0.75502187 0
vt 0.85157156 0.752478778 0
vt 0.852627456 0.701219201 0
vt 0.859460354 0.70342195 0

# 140 vertex normals
vn -0.928455055 0.371444881 -6.05160579e-08
vn -0.498996496 0.866603971 -1.41187712e-07
vn -0.95569557 0.29435727 -4.79568882e-08
vn -0.257918715 0.966166615 -1.57408522e-07
vn -0.9047544 0.42593348 -6.93933728e-08
vn -0.130146816 0.991494715 -1.61534999e-07
vn -0.939050972 0.343778104 -5.60085631e-08
vn -0.160097659 0.0332469605 0.986541152
vn 0 1 -1.62920685e-07
vn -0.99999994 0 -0
vn -0.535326302 -0.844645381 1.37610201e-07
vn 0 -1 1.62920685e-07
vn -0.0590202212 -0.813405275 0.578695416
vn -0.198590681 -0.158938587 0.967109144
vn -0.239325911 0.350236326 0.905570388
vn -0.0176654067 -0.336501539 0.941517174
vn -0.0349838063 0.36006853 0.932269692
vn -0.0345381387 -0.409441262 0.911682487
vn -0.0118983686 -0.454371542 0.890732706
vn 0.0883901715 -0.411319882 0.90719521
vn 0.0115703996 -0.315034032 0.949009836
vn 0.352395177 -0.28468892 0.891498685
vn 0.44080326 -0.20174022 0.874639034
vn -0.0127166994 -0.813869953 0.580907822
vn -0.867932856 0.155823246 0.47160539
vn 0.993800282 0.00232890295 0.111154638
vn 0.110258929 0.982315183 -0.151327521
vn -0.0245999359 0.0041789012 0.999688566
vn 0.0692391545 0.542693973 0.837071836
vn -0.733833671 0.0906162336 0.673258245
vn -0.0754602477 0.496311992 0.864858449
vn 0.157495528 0.564816654 0.810047746
vn -0.116221599 0.176678106 0.977382898
vn 0.208562016 0.0151479822 0.977891803
vn 0.0243769027 1.62872269e-07 0.999702811
vn 0.0497975908 0.400141001 0.915099561
vn 0.0237282068 0.229161739 0.973099113
vn 0.0228492431 0.348441094 0.937052071
vn 0.907565355 0.419910759 -6.84121488e-08
vn 0.690603614 0.723233521 -1.178297e-07
vn 0.480908364 0.285836965 0.828869402
vn -0.0841863826 0.347295135 0.933969319
vn -0.0430324413 0.193814158 0.980094016
vn 0.0888977423 0.233693898 0.968237817
vn 0.0776120573 0.371554434 0.925161421
vn 0.28646341 1.56092867e-07 0.95809114
vn 0.411656201 1.48476005e-07 0.911339223
vn 0.204259649 0.102164902 0.973570943
vn 0.220805466 0.725934267 0.651355743
vn 0.0671708211 0.34774518 0.93517983
vn -0.63620317 -0.771521568 1.25696829e-07
vn 0.306539863 -0.951857865 1.55077331e-07
vn 0.0699763075 -0.997548699 1.62521317e-07
vn 0.306531549 -0.951860547 1.55077771e-07
vn 0.504345834 -0.863501787 1.40682303e-07
vn 0.536297858 -0.686867416 0.490507692
vn 0.323645175 -0.901385367 0.287677109
vn 0.0364934914 -0.925830781 0.376172096
vn 0 -0.840812683 0.541326225
vn -0.0315291584 -0.733632326 0.678814769
vn -0.919590294 0.392878681 -6.40080629e-08
vn -0.167008013 0.985955596 -1.60632567e-07
vn 0.997301638 0.0734128058 -1.19604646e-08
vn 0.797667027 -0.603098094 9.82571535e-08
vn 0.647695363 -0.761899292 1.24129159e-07
vn 0.642515182 -0.766272962 1.24841719e-07
vn 0.586079895 -0.810253143 1.32007003e-07
vn 0.370895326 1.51300313e-07 0.928674698
vn 0.351123363 1.52547386e-07 0.936329126
vn -0.225247845 0.251772195 0.941208839
vn 0.161041468 0.0787132531 0.983803749
vn 0.370979577 0.0219996274 0.928380489
vn 0.563797712 -0.722765744 0.399677157
vn 0.406944752 -0.276651949 0.870551348
vn 0.339488119 -0.119545572 0.932982683
vn -0.3638165 0.931470692 -1.51755842e-07
vn -0.163838074 0.713197589 0.681547105
vn 0.395395041 1.4964445e-07 0.918511093
vn 0.540100038 -0.184221312 0.821190894
vn 0.603567302 -0.797312081 1.29898623e-07
vn 0.68502754 -0.630875289 0.364326328
vn -0.498996466 0.866603971 -1.41187712e-07
vn -0.160097659 0.0332466401 -0.986541152
vn -0.0590202212 -0.813405514 -0.578695178
vn -0.198590711 -0.158938929 -0.967109263
vn -0.239325911 0.350236028 -0.905570507
vn -0.0176654067 -0.336501807 -0.941517174
vn -0.0349838063 0.360068232 -0.932269812
vn -0.0345381387 -0.409441501 -0.911682367
vn -0.0118983686 -0.45437181 -0.890732586
vn 0.0883901715 -0.41132012 -0.907195091
vn 0.0115703987 -0.31503433 -0.949009657
vn 0.352395236 -0.284689218 -0.891498506
vn 0.44080326 -0.201740488 -0.874638915
vn -0.0127166733 -0.813870192 -0.580907583
vn -0.867932856 0.155823067 -0.47160548
vn 0.993800402 0.00232886663 -0.111154325
vn 0.110259011 0.982315123 0.151327133
vn -0.0245999508 0.00417843834 -0.999688685
vn 0.0692391545 0.542693675 -0.837072015
vn -0.733833671 0.0906160399 -0.673258245
vn -0.07546027 0.496311754 -0.864858568
vn 0.157495528 0.564816415 -0.810047984
vn -0.116221599 0.176677793 -0.977382898
vn 0.208562031 0.0151476655 -0.977891743
vn 0.0243769027 -1.62872269e-07 -0.999702811
vn 0.0497975908 0.400140852 -0.91509968
vn 0.0237281993 0.229161412 -0.973099232
vn 0.0228492077 0.348440796 -0.93705219
vn 0.907565475 0.419910729 -6.84121417e-08
vn 0.480908364 0.285836667 -0.828869522
vn -0.0841863826 0.347294837 -0.933969438
vn -0.0430324338 0.193813771 -0.980094135
vn 0.0888977498 0.2336936 -0.968237817
vn 0.0776120573 0.371554136 -0.925161541
vn 0.286463499 -1.56092867e-07 -0.95809114
vn 0.411656201 -1.48476005e-07 -0.911339223
vn 0.204259649 0.102164589 -0.973570943
vn 0.220805466 0.725934029 -0.651355982
vn 0.0671708211 0.347744882 -0.935179949
vn 0.536298096 -0.686867595 -0.490507275
vn 0.323645175 -0.901385367 -0.287677079
vn 0.0364935026 -0.92583096 -0.376171887
vn 0 -0.840812862 -0.541325986
vn -0.0315291584 -0.733632565 -0.678814471
vn 0.797666907 -0.603098154 9.82571677e-08
vn 0.647695363 -0.761899412 1.24129173e-07
vn 0.642515242 -0.766272902 1.24841705e-07
vn 0.370895624 -1.51300284e-07 -0.928674519
vn 0.351122916 -1.52547429e-07 -0.936329424
vn -0.225247845 0.251771867 -0.941208959
vn 0.161041334 0.0787128732 -0.983803868
vn 0.370980054 0.0219993535 -0.928380191
vn 0.563797712 -0.722765863 -0.399676919
vn 0.406944901 -0.276652336 -0.870551109
vn 0.339488089 -0.119545899 -0.932982683
vn -0.163838074 0.713197351 -0.681547344
vn 0.395395041 -1.4964445e-07 -0.918511093
vn 0.540100038 -0.18422161 -0.821190774
vn 0.685026944 -0.630874813 -0.364328176

# Mesh 'Plane.001' with 172 faces
g Plane.001
usemtl DefaultMaterial
f  1/1/1 2/2/1 3/3/1 4/4/1
f  5/5/2 6/6/2 7/7/2 8/8/2
f  9/9/3 10/10/3 11/11/3 12/12/3
f  13/13/4 14/14/4 15/15/4 16/16/4
f  17/17/5 18/18/5 19/19/5 20/20/5
f  21/21/6 22/22/6 23/23/6 24/24/6
f  25/25/7 26/26/7 27/27/7 28/28/7
f  29/29/8 30/30/8 31/31/8 32/32/8
f  33/33/9 34/33/9 35/33/9 36/33/9
f  37/34/10 38/35/10 39/36/10 40/37/10
f  41/38/11 42/39/11 43/40/11 44/41/11
f  45/41/12 46/40/12 47/42/12 48/43/12
f  49/38/13 50/41/13 51/43/13 52/44/13
f  53/29/14 54/32/14 55/45/14 56/46/14
f  57/29/15 58/46/15 59/47/15
f  60/46/16 61/45/16 62/48/16 63/49/16
f  64/46/17 65/49/17 66/47/17
f  67/49/18 68/48/18 69/50/18 70/51/18
f  71/51/19 72/50/19 73/52/19 74/53/19
f  75/53/20 76/52/20 77/54/20 78/55/20
f  79/55/21 80/54/21 81/56/21 82/57/21
f  83/57/22 84/56/22 85/58/22 86/59/22
f  87/59/23 88/58/23 89/60/23 90/61/23
f  91/62/24 92/63/24 93/64/24 94/65/24
f  95/66/25 96/67/25 97/68/25 98/69/25
f  99/70/26 100/71/26 101/72/26 102/73/26
f  103/74/27 104/75/27 105/76/27 106/77/27
f  107/78/28 108/79/28 109/80/28 110/81/28
f  111/82/29 112/83/29 113/84/29 114/85/29
f  115/66/30 116/69/30 117/7/30 118/86/30
f  119/49/31 120/51/31 121/87/31 122/88/31
f  123/49/32 124/88/32 125/47/32
f  126/47/33 127/88/33 128/87/33 129/85/33 130/89/33 131/90/33
f  132/55/34 133/91/34 134/91/34 135/83/34 136/83/34 137/53/34
f  138/55/35 139/57/35 140/92/35 141/91/35
f  142/33/9 143/33/9 144/33/9 145/33/9
f  146/33/9 147/33/9 148/33/9 149/33/9
f  150/83/36 151/83/36 152/91/36 153/93/36 154/84/36
f  155/91/37 156/92/37 157/94/37 158/93/37
f  159/93/38 160/94/38 161/95/38 162/96/38
f  163/97/9 164/98/9 165/99/9 166/100/9
f  167/101/39 168/102/39 169/103/39 170/104/39
f  171/103/40 172/105/40 173/106/40 174/104/40
f  175/107/41 176/95/41 177/108/41
f  178/93/42 179/96/42 180/84/42
f  181/109/43 182/89/43 183/85/43 184/84/43 185/96/43 186/110/43
f  187/95/44 188/107/44 189/110/44 190/96/44
f  191/110/45 192/107/45 193/111/45 194/112/45
f  195/59/46 196/113/46 197/92/46 198/57/46
f  199/59/47 200/61/47 201/114/47 202/115/47 203/116/47 204/113/47
f  205/92/48 206/113/48 207/116/48 208/94/48
f  209/95/49 210/116/49 211/115/49 212/108/49
f  213/95/50 214/94/50 215/116/50
f  216/43/51 217/42/51 218/117/51 219/118/51
f  220/118/12 221/117/12 222/119/12 223/120/12
f  224/120/52 225/119/52 226/121/52 227/122/52
f  228/122/12 229/121/12 230/123/12 231/124/12
f  232/124/53 233/123/53 234/125/53 235/126/53
f  236/126/54 237/125/54 238/127/54 239/128/54
f  240/128/55 241/127/55 242/129/55 243/130/55
f  244/131/56 245/128/56 246/130/56 247/132/56
f  248/133/57 249/126/57 250/128/57 251/131/57
f  252/134/58 253/124/58 254/126/58 255/133/58 256/135/58
f  257/136/59 258/122/59 259/124/59 260/134/59 261/137/59
f  262/43/60 263/118/60 264/120/60 265/122/60 266/136/60 267/138/60 268/44/60
f  269/139/61 270/140/61 271/141/61 272/142/61
f  273/143/62 274/144/62 275/145/62 276/146/62
f  277/147/63 278/148/63 279/149/63 280/150/63
f  281/150/64 282/149/64 283/151/64 284/152/64
f  285/153/65 286/154/65 287/155/65 288/156/65
f  289/156/66 290/155/66 291/157/66 292/158/66
f  293/159/67 294/160/67 295/158/67 296/157/67
f  297/161/68 298/162/68 299/163/68 300/164/68 301/165/68 302/166/68
f  303/164/69 304/163/69 305/167/69 306/168/69 307/169/69 308/165/69
f  309/166/70 310/165/70 311/170/70 312/171/70
f  313/170/71 314/165/71 315/169/71 316/172/71
f  317/172/72 318/169/72 319/168/72 320/167/72 321/173/72
f  322/174/73 323/159/73 324/157/73
f  325/175/74 326/176/74 327/163/74 328/162/74
f  329/177/75 330/173/75 331/167/75 332/163/75 333/176/75 334/178/75
f  335/179/76 336/180/76 337/181/76 338/182/76
f  339/115/77 340/166/77 341/171/77 342/108/77
f  343/114/78 344/61/78 345/162/78 346/161/78 347/166/78 348/115/78
f  349/61/79 350/60/79 351/175/79 352/162/79
f  353/130/80 354/129/80 355/160/80 356/159/80
f  357/183/81 358/184/81 359/185/81 360/186/81
f  361/1/1 362/4/1 363/3/1 364/2/1
f  365/5/82 366/8/82 367/7/82 368/6/82
f  369/9/3 370/12/3 371/11/3 372/10/3
f  373/13/4 374/16/4 375/15/4 376/14/4
f  377/17/5 378/20/5 379/19/5 380/18/5
f  381/21/6 382/24/6 383/23/6 384/22/6
f  385/25/7 386/28/7 387/27/7 388/26/7
f  389/29/83 390/32/83 391/31/83 392/30/83
f  393/33/9 394/33/9 395/33/9 396/33/9
f  397/34/10 398/37/10 399/36/10 400/35/10
f  401/38/11 402/41/11 403/40/11 404/39/11
f  405/41/12 406/43/12 407/42/12 408/40/12
f  409/38/84 410/44/84 411/43/84 412/41/84
f  413/29/85 414/46/85 415/45/85 416/32/85
f  417/29/86 418/47/86 419/46/86
f  420/46/87 421/49/87 422/48/87 423/45/87
f  424/46/88 425/47/88 426/49/88
f  427/49/89 428/51/89 429/50/89 430/48/89
f  431/51/90 432/53/90 433/52/90 434/50/90
f  435/53/91 436/55/91 437/54/91 438/52/91
f  439/55/92 440/57/92 441/56/92 442/54/92
f  443/57/93 444/59/93 445/58/93 446/56/93
f  447/59/94 448/61/94 449/60/94 450/58/94
f  451/62/95 452/65/95 453/64/95 454/63/95
f  455/66/96 456/69/96 457/68/96 458/67/96
f  459/70/97 460/73/97 461/72/97 462/71/97
f  463/74/98 464/77/98 465/76/98 466/75/98
f  467/78/99 468/81/99 469/80/99 470/79/99
f  471/82/100 472/85/100 473/84/100 474/83/100
f  475/66/101 476/86/101 477/7/101 478/69/101
f  479/49/102 480/88/102 481/87/102 482/51/102
f  483/49/103 484/47/103 485/88/103
f  486/47/104 487/90/104 488/89/104 489/85/104 490/87/104 491/88/104
f  492/55/105 493/53/105 494/83/105 495/83/105 496/91/105 497/91/105
f  498/55/106 499/91/106 500/92/106 501/57/106
f  502/33/9 503/33/9 504/33/9 505/33/9
f  506/33/9 507/33/9 508/33/9 509/33/9
f  510/83/107 511/84/107 512/93/107 513/91/107 514/83/107
f  515/91/108 516/93/108 517/94/108 518/92/108
f  519/93/109 520/96/109 521/95/109 522/94/109
f  523/97/9 524/100/9 525/99/9 526/98/9
f  527/101/110 528/104/110 529/103/110 530/102/110
f  531/103/40 532/104/40 533/106/40 534/105/40
f  535/107/111 536/108/111 537/95/111
f  538/93/112 539/84/112 540/96/112
f  541/109/113 542/110/113 543/96/113 544/84/113 545/85/113 546/89/113
f  547/95/114 548/96/114 549/110/114 550/107/114
f  551/110/115 552/112/115 553/111/115 554/107/115
f  555/59/116 556/57/116 557/92/116 558/113/116
f  559/59/117 560/113/117 561/116/117 562/115/117 563/114/117 564/61/117
f  565/92/118 566/94/118 567/116/118 568/113/118
f  569/95/119 570/108/119 571/115/119 572/116/119
f  573/95/120 574/116/120 575/94/120
f  576/43/51 577/118/51 578/117/51 579/42/51
f  580/118/12 581/120/12 582/119/12 583/117/12
f  584/120/52 585/122/52 586/121/52 587/119/52
f  588/122/12 589/124/12 590/123/12 591/121/12
f  592/124/53 593/126/53 594/125/53 595/123/53
f  596/126/54 597/128/54 598/127/54 599/125/54
f  600/128/55 601/130/55 602/129/55 603/127/55
f  604/131/121 605/132/121 606/130/121 607/128/121
f  608/133/122 609/131/122 610/128/122 611/126/122
f  612/134/123 613/135/123 614/133/123 615/126/123 616/124/123
f  617/136/124 618/137/124 619/134/124 620/124/124 621/122/124
f  622/43/125 623/44/125 624/138/125 625/136/125 626/122/125 627/120/125 628/118/125
f  629/139/61 630/142/61 631/141/61 632/140/61
f  633/143/62 634/146/62 635/145/62 636/144/62
f  637/147/63 638/150/63 639/149/63 640/148/63
f  641/150/126 642/152/126 643/151/126 644/149/126
f  645/153/127 646/156/127 647/155/127 648/154/127
f  649/156/128 650/158/128 651/157/128 652/155/128
f  653/159/67 654/157/67 655/158/67 656/160/67
f  657/161/129 658/166/129 659/165/129 660/164/129 661/163/129 662/162/129
f  663/164/130 664/165/130 665/169/130 666/168/130 667/167/130 668/163/130
f  669/166/131 670/171/131 671/170/131 672/165/131
f  673/170/132 674/172/132 675/169/132 676/165/132
f  677/172/133 678/173/133 679/167/133 680/168/133 681/169/133
f  682/174/134 683/157/134 684/159/134
f  685/175/135 686/162/135 687/163/135 688/176/135
f  689/177/136 690/178/136 691/176/136 692/163/136 693/167/136 694/173/136
f  695/179/76 696/182/76 697/181/76 698/180/76
f  699/115/137 700/108/137 701/171/137 702/166/137
f  703/114/138 704/115/138 705/166/138 706/161/138 707/162/138 708/61/138
f  709/61/139 710/162/139 711/175/139 712/60/139
f  713/130/80 714/159/80 715/160/80 716/129/80
f  717/183/140 718/186/140 719/185/140 720/184/140

