# Blender 5.2.2 LTS
# www.blender.org
mtllib twinprop.mtl
o an24
v 4.653867 -0.617562 2.286955
v 4.740397 -0.617562 2.286955
v 4.653867 0.118300 2.286955
v 4.740397 0.118300 2.286955
v 4.653867 0.118300 2.221668
v 4.653867 -0.617562 2.221668
v 4.740397 -0.617562 2.221668
v 4.740397 0.118300 2.221668
v 4.771140 0.211447 2.310150
v 4.623125 0.211447 2.310150
v 4.771140 0.211447 2.198472
v 4.623125 0.211447 2.198472
v 4.771140 1.229353 2.310150
v 4.623125 1.229353 2.310150
v 4.771140 1.229353 2.198472
v 4.623125 1.229353 2.198472
v 4.750061 -0.608209 1.772347
v 4.815960 -0.608209 1.704123
v 5.100061 -0.608209 1.772347
v 5.034162 -0.608209 1.704123
v 4.750061 -0.849097 1.836892
v 4.815960 -0.883209 1.777809
v 5.100061 -0.849097 1.836892
v 5.034162 -0.883209 1.777809
v 4.750061 -1.025440 2.013234
v 4.815960 -1.084523 1.979123
v 5.100061 -1.025440 2.013234
v 5.034162 -1.084523 1.979123
v 4.750061 -1.089985 2.254123
v 4.815960 -1.158209 2.254123
v 5.100061 -1.089985 2.254123
v 5.034162 -1.158209 2.254123
v 4.750061 -1.025440 2.495011
v 4.815960 -1.084523 2.529123
v 5.100061 -1.025440 2.495011
v 5.034162 -1.084523 2.529123
v 4.750061 -0.849097 2.671354
v 4.815960 -0.883209 2.730437
v 5.100061 -0.849097 2.671354
v 5.034162 -0.883209 2.730437
v 4.750061 -0.608209 2.735899
v 4.815960 -0.608209 2.804123
v 5.100061 -0.608209 2.735899
v 5.034162 -0.608209 2.804123
v 4.750061 -0.367321 2.671354
v 4.815960 -0.333209 2.730437
v 5.100061 -0.367321 2.671354
v 5.034162 -0.333209 2.730437
v 4.750061 -0.190979 2.495012
v 4.815960 -0.131895 2.529123
v 5.100061 -0.190979 2.495012
v 5.034162 -0.131895 2.529123
v 4.750061 -0.126433 2.254123
v 4.815960 -0.058209 2.254123
v 5.100061 -0.126433 2.254123
v 5.034163 -0.058209 2.254123
v 4.750061 -0.190979 2.013235
v 4.815960 -0.131895 1.979123
v 5.100061 -0.190979 2.013235
v 5.034162 -0.131895 1.979123
v 4.750061 -0.367321 1.836892
v 4.815960 -0.333209 1.777810
v 5.100061 -0.367321 1.836892
v 5.034162 -0.333209 1.777810
v 4.286826 -0.608209 1.772347
v 4.352725 -0.608209 1.704123
v 4.636826 -0.608209 1.772347
v 4.570927 -0.608209 1.704123
v 4.286826 -0.849097 1.836892
v 4.352725 -0.883209 1.777809
v 4.636826 -0.849097 1.836892
v 4.570927 -0.883209 1.777809
v 4.286826 -1.025440 2.013234
v 4.352725 -1.084523 1.979123
v 4.636826 -1.025440 2.013234
v 4.570927 -1.084523 1.979123
v 4.286826 -1.089985 2.254123
v 4.352725 -1.158209 2.254123
v 4.636826 -1.089985 2.254123
v 4.570927 -1.158209 2.254123
v 4.286826 -1.025440 2.495011
v 4.352725 -1.084523 2.529123
v 4.636826 -1.025440 2.495011
v 4.570927 -1.084523 2.529123
v 4.286826 -0.849097 2.671354
v 4.352725 -0.883209 2.730437
v 4.636826 -0.849097 2.671354
v 4.570927 -0.883209 2.730437
v 4.286826 -0.608209 2.735899
v 4.352725 -0.608209 2.804123
v 4.636826 -0.608209 2.735899
v 4.570927 -0.608209 2.804123
v 4.286826 -0.367321 2.671354
v 4.352725 -0.333209 2.730437
v 4.636826 -0.367321 2.671354
v 4.570927 -0.333209 2.730437
v 4.286826 -0.190979 2.495012
v 4.352725 -0.131895 2.529123
v 4.636826 -0.190979 2.495012
v 4.570927 -0.131895 2.529123
v 4.286826 -0.126433 2.254123
v 4.352725 -0.058209 2.254123
v 4.636826 -0.126433 2.254123
v 4.570927 -0.058209 2.254123
v 4.286826 -0.190979 2.013235
v 4.352725 -0.131895 1.979123
v 4.636826 -0.190979 2.013235
v 4.570927 -0.131895 1.979123
v 4.286826 -0.367321 1.836892
v 4.352725 -0.333209 1.777810
v 4.636826 -0.367321 1.836892
v 4.570927 -0.333209 1.777810
v -4.656893 -0.617562 2.286955
v -4.743423 -0.617562 2.286955
v -4.656893 0.118300 2.286955
v -4.743423 0.118300 2.286955
v -4.656893 0.118300 2.221668
v -4.656893 -0.617562 2.221668
v -4.743423 -0.617562 2.221668
v -4.743423 0.118300 2.221668
v -4.774166 0.211447 2.310151
v -4.626151 0.211447 2.310151
v -4.774166 0.211447 2.198472
v -4.626151 0.211447 2.198472
v -4.774166 1.229353 2.310151
v -4.626151 1.229353 2.310151
v -4.774166 1.229353 2.198472
v -4.626151 1.229353 2.198472
v -4.753087 -0.608209 1.772347
v -4.818986 -0.608209 1.704123
v -5.103087 -0.608209 1.772347
v -5.037188 -0.608209 1.704123
v -4.753087 -0.849097 1.836893
v -4.818986 -0.883209 1.777809
v -5.103087 -0.849097 1.836893
v -5.037188 -0.883209 1.777809
v -4.753087 -1.025440 2.013235
v -4.818986 -1.084523 1.979124
v -5.103087 -1.025440 2.013235
v -5.037188 -1.084523 1.979124
v -4.753087 -1.089985 2.254123
v -4.818986 -1.158209 2.254123
v -5.103087 -1.089985 2.254123
v -5.037188 -1.158209 2.254123
v -4.753087 -1.025440 2.495011
v -4.818986 -1.084523 2.529123
v -5.103087 -1.025440 2.495011
v -5.037188 -1.084523 2.529123
v -4.753087 -0.849097 2.671354
v -4.818986 -0.883209 2.730437
v -5.103087 -0.849097 2.671354
v -5.037188 -0.883209 2.730437
v -4.753087 -0.608209 2.735899
v -4.818986 -0.608209 2.804123
v -5.103087 -0.608209 2.735899
v -5.037188 -0.608209 2.804123
v -4.753087 -0.367321 2.671354
v -4.818986 -0.333209 2.730437
v -5.103087 -0.367321 2.671354
v -5.037188 -0.333209 2.730437
v -4.753087 -0.190979 2.495012
v -4.818986 -0.131895 2.529123
v -5.103087 -0.190979 2.495012
v -5.037188 -0.131895 2.529123
v -4.753087 -0.126433 2.254123
v -4.818986 -0.058209 2.254123
v -5.103087 -0.126433 2.254123
v -5.037189 -0.058209 2.254123
v -4.753087 -0.190979 2.013236
v -4.818986 -0.131895 1.979124
v -5.103087 -0.190979 2.013236
v -5.037188 -0.131895 1.979124
v -4.753087 -0.367321 1.836893
v -4.818986 -0.333209 1.777810
v -5.103087 -0.367321 1.836893
v -5.037188 -0.333209 1.777810
v -4.289852 -0.608209 1.772347
v -4.355751 -0.608209 1.704123
v -4.639852 -0.608209 1.772347
v -4.573953 -0.608209 1.704123
v -4.289852 -0.849097 1.836893
v -4.355751 -0.883209 1.777809
v -4.639852 -0.849097 1.836893
v -4.573953 -0.883209 1.777809
v -4.289852 -1.025440 2.013235
v -4.355751 -1.084523 1.979124
v -4.639852 -1.025440 2.013235
v -4.573953 -1.084523 1.979124
v -4.289852 -1.089985 2.254123
v -4.355751 -1.158209 2.254123
v -4.639852 -1.089985 2.254123
v -4.573953 -1.158209 2.254123
v -4.289852 -1.025440 2.495011
v -4.355751 -1.084523 2.529123
v -4.639852 -1.025440 2.495011
v -4.573953 -1.084523 2.529123
v -4.289852 -0.849097 2.671354
v -4.355751 -0.883209 2.730437
v -4.639852 -0.849097 2.671354
v -4.573953 -0.883209 2.730437
v -4.289852 -0.608209 2.735899
v -4.355751 -0.608209 2.804123
v -4.639852 -0.608209 2.735899
v -4.573953 -0.608209 2.804123
v -4.289852 -0.367321 2.671354
v -4.355751 -0.333209 2.730437
v -4.639852 -0.367321 2.671354
v -4.573953 -0.333209 2.730437
v -4.289852 -0.190979 2.495012
v -4.355751 -0.131895 2.529123
v -4.639852 -0.190979 2.495012
v -4.573953 -0.131895 2.529123
v -4.289852 -0.126433 2.254123
v -4.355751 -0.058209 2.254123
v -4.639852 -0.126433 2.254123
v -4.573953 -0.058209 2.254123
v -4.289852 -0.190979 2.013236
v -4.355751 -0.131895 1.979124
v -4.639852 -0.190979 2.013236
v -4.573953 -0.131895 1.979124
v -4.289852 -0.367321 1.836893
v -4.355751 -0.333209 1.777810
v -4.639852 -0.367321 1.836893
v -4.573953 -0.333209 1.777810
v 0.043384 -0.739834 -6.255696
v 0.095640 -0.739835 -6.309796
v 0.320927 -0.739834 -6.255696
v 0.268671 -0.739835 -6.309796
v 0.043384 -0.930854 -6.204512
v 0.095640 -0.957904 -6.251364
v 0.320927 -0.930854 -6.204512
v 0.268671 -0.957904 -6.251364
v 0.043384 -1.070690 -6.064676
v 0.095640 -1.117543 -6.091726
v 0.320927 -1.070690 -6.064676
v 0.268671 -1.117543 -6.091726
v 0.043384 -1.121874 -5.873656
v 0.095640 -1.175974 -5.873656
v 0.320927 -1.121874 -5.873656
v 0.268671 -1.175974 -5.873656
v 0.043384 -1.070690 -5.682636
v 0.095640 -1.117543 -5.655586
v 0.320927 -1.070690 -5.682636
v 0.268671 -1.117543 -5.655586
v 0.043384 -0.930854 -5.542800
v 0.095640 -0.957904 -5.495948
v 0.320927 -0.930854 -5.542800
v 0.268671 -0.957904 -5.495948
v 0.043384 -0.739835 -5.491616
v 0.095640 -0.739835 -5.437516
v 0.320927 -0.739835 -5.491616
v 0.268671 -0.739835 -5.437516
v 0.043384 -0.548815 -5.542800
v 0.095640 -0.521765 -5.495948
v 0.320927 -0.548815 -5.542800
v 0.268671 -0.521765 -5.495948
v 0.043384 -0.408979 -5.682636
v 0.095640 -0.362126 -5.655586
v 0.320927 -0.408979 -5.682636
v 0.268671 -0.362126 -5.655586
v 0.043384 -0.357795 -5.873656
v 0.095640 -0.303695 -5.873656
v 0.320927 -0.357795 -5.873656
v 0.268671 -0.303695 -5.873656
v 0.043384 -0.408978 -6.064676
v 0.095640 -0.362126 -6.091726
v 0.320927 -0.408978 -6.064676
v 0.268671 -0.362126 -6.091726
v 0.043384 -0.548815 -6.204512
v 0.095640 -0.521764 -6.251364
v 0.320927 -0.548815 -6.204512
v 0.268671 -0.521764 -6.251364
v -0.323953 -0.739834 -6.255696
v -0.271697 -0.739835 -6.309796
v -0.046410 -0.739834 -6.255696
v -0.098666 -0.739835 -6.309796
v -0.323953 -0.930854 -6.204512
v -0.271697 -0.957904 -6.251364
v -0.046410 -0.930854 -6.204512
v -0.098666 -0.957904 -6.251364
v -0.323953 -1.070690 -6.064676
v -0.271697 -1.117543 -6.091726
v -0.046410 -1.070690 -6.064676
v -0.098666 -1.117543 -6.091726
v -0.323953 -1.121874 -5.873656
v -0.271697 -1.175974 -5.873656
v -0.046410 -1.121874 -5.873656
v -0.098666 -1.175974 -5.873656
v -0.323953 -1.070690 -5.682636
v -0.271697 -1.117543 -5.655586
v -0.046410 -1.070690 -5.682636
v -0.098666 -1.117543 -5.655586
v -0.323953 -0.930854 -5.542800
v -0.271697 -0.957904 -5.495948
v -0.046410 -0.930854 -5.542800
v -0.098666 -0.957904 -5.495948
v -0.323953 -0.739835 -5.491616
v -0.271697 -0.739835 -5.437516
v -0.046410 -0.739835 -5.491616
v -0.098666 -0.739835 -5.437516
v -0.323953 -0.548815 -5.542800
v -0.271697 -0.521765 -5.495948
v -0.046410 -0.548815 -5.542800
v -0.098666 -0.521765 -5.495948
v -0.323953 -0.408979 -5.682636
v -0.271697 -0.362126 -5.655586
v -0.046410 -0.408979 -5.682636
v -0.098666 -0.362126 -5.655586
v -0.323953 -0.357795 -5.873656
v -0.271697 -0.303695 -5.873656
v -0.046410 -0.357795 -5.873656
v -0.098666 -0.303695 -5.873656
v -0.323953 -0.408978 -6.064676
v -0.271697 -0.362126 -6.091726
v -0.046410 -0.408978 -6.064676
v -0.098666 -0.362126 -6.091726
v -0.323953 -0.548815 -6.204512
v -0.271697 -0.521764 -6.251364
v -0.046410 -0.548815 -6.204512
v -0.098666 -0.521764 -6.251364
v -0.043219 -0.738554 -5.888667
v 0.038567 -0.738554 -5.888667
v -0.043219 -0.397214 -6.470598
v 0.038567 -0.397214 -6.470598
v -0.043219 -0.252802 -6.408238
v 0.038567 -0.252802 -6.408238
v -0.043219 0.036024 -5.955307
v 0.038567 0.036024 -5.955307
v -0.043219 0.259207 -6.257261
v 0.038567 0.259207 -6.257261
v -0.043219 -0.397214 -6.583395
v -0.043219 -0.738554 -6.001465
v 0.038567 -0.738554 -6.001465
v 0.038567 -0.397214 -6.583395
v 0.038567 -0.252802 -6.521037
v -0.043219 -0.252802 -6.521037
v 0.038567 0.259207 -6.370059
v -0.043219 0.259207 -6.370059
v 0.038567 -0.188699 -6.449115
v -0.043219 -0.188699 -6.449115
v 0.038567 0.100127 -5.996185
v -0.043219 0.100127 -5.996185
v 4.999314 3.273202 -0.676175
v 4.999314 2.710285 3.609991
v 5.410258 2.638542 -0.676175
v 5.410258 2.638542 3.609991
v 5.410258 1.740999 -0.676175
v 5.410258 1.740999 3.609991
v 4.999314 1.106340 -0.676175
v 4.999314 1.106340 3.609991
v 4.418152 1.106340 -0.676175
v 4.418152 1.106340 3.609991
v 4.007208 1.740999 -0.676175
v 4.007208 1.740999 3.609991
v 4.007208 2.638543 -0.676175
v 4.007208 2.638542 3.609991
v 4.418152 3.273202 -0.676175
v 4.418152 2.710285 3.609991
v 4.824960 1.685728 5.559723
v 4.756876 1.873817 5.559723
v 4.824960 1.419730 5.559723
v 4.756876 1.231642 5.559723
v 4.660590 1.231642 5.559723
v 4.592506 1.419731 5.559723
v 4.592506 1.685728 5.559723
v 4.660590 1.873817 5.559723
v 4.840250 2.793954 -1.916466
v 5.060902 2.453182 -1.916466
v 5.060902 1.926359 -1.916466
v 4.840250 1.585587 -1.916466
v 4.577216 1.585587 -1.916466
v 4.356565 1.926360 -1.916466
v 4.356565 2.453182 -1.916466
v 4.577216 2.793954 -1.916466
v 4.900484 2.904714 -1.988866
v 5.171661 2.485909 -1.988866
v 5.171661 1.893632 -1.988866
v 4.900484 1.474828 -1.988866
v 4.516982 1.474828 -1.988866
v 4.245805 1.893632 -1.988866
v 4.245805 2.485910 -1.988866
v 4.516982 2.904714 -1.988866
v 4.869099 2.847002 -1.988866
v 5.113950 2.468857 -1.988866
v 5.113950 1.910685 -1.988866
v 4.869099 1.532539 -1.988866
v 4.548367 1.532539 -1.988866
v 4.303516 1.910685 -1.988866
v 4.303516 2.468857 -1.988866
v 4.548367 2.847002 -1.988866
v 4.733241 2.524387 -2.755072
v 4.704051 2.536478 -2.755072
v 4.704051 2.815197 -2.498309
v 4.704051 2.815197 -1.762236
v 4.930325 2.721471 -2.498309
v 4.930325 2.721471 -1.762236
v 5.024051 2.495197 -2.498309
v 5.024051 2.495197 -1.762236
v 4.930325 2.268923 -2.498309
v 4.930325 2.268922 -1.762236
v 4.704051 2.175197 -2.498309
v 4.704051 2.175197 -1.762236
v 4.477777 2.268923 -2.498309
v 4.477777 2.268923 -1.762236
v 4.384050 2.495197 -2.498309
v 4.384050 2.495197 -1.762236
v 4.477777 2.721471 -2.498309
v 4.477777 2.721471 -1.762236
v 4.745332 2.495197 -2.755072
v 4.733241 2.466007 -2.755072
v 4.704051 2.453916 -2.755072
v 4.674860 2.466007 -2.755072
v 4.662769 2.495197 -2.755072
v 4.674860 2.524387 -2.755072
v 4.557299 3.120680 -2.481835
v 4.852975 3.120680 -2.481835
v 4.531058 4.407249 -2.411939
v 4.879215 4.407249 -2.551732
v 4.617389 4.659747 -2.446602
v 4.792884 4.659747 -2.517067
v 4.665991 2.526195 -2.481835
v 4.744282 2.526195 -2.481835
v 4.071506 2.339211 -2.481835
v 4.071506 2.634888 -2.481835
v 2.784937 2.312971 -2.411939
v 2.784937 2.661128 -2.551732
v 2.532440 2.399302 -2.446602
v 2.532440 2.574797 -2.517067
v 4.665991 2.447904 -2.481835
v 4.852975 1.853419 -2.481835
v 4.557299 1.853419 -2.481835
v 4.879215 0.566850 -2.411939
v 4.531058 0.566850 -2.551732
v 4.792884 0.314352 -2.446603
v 4.617389 0.314352 -2.517068
v 4.744282 2.447904 -2.481835
v 5.338768 2.634888 -2.481835
v 5.338768 2.339211 -2.481835
v 6.625337 2.661128 -2.411939
v 6.625337 2.312971 -2.551732
v 6.877834 2.574797 -2.446602
v 6.877834 2.399302 -2.517067
v -5.002340 3.273202 -0.676175
v -5.002340 2.710285 3.609991
v -5.413284 2.638542 -0.676175
v -5.413284 2.638542 3.609991
v -5.413284 1.740999 -0.676175
v -5.413284 1.740999 3.609991
v -5.002340 1.106340 -0.676175
v -5.002340 1.106340 3.609991
v -4.421178 1.106340 -0.676175
v -4.421178 1.106340 3.609991
v -4.010234 1.740999 -0.676175
v -4.010234 1.740999 3.609991
v -4.010234 2.638543 -0.676175
v -4.010234 2.638542 3.609991
v -4.421178 3.273202 -0.676175
v -4.421178 2.710285 3.609991
v -4.827986 1.685728 5.559723
v -4.759902 1.873817 5.559723
v -4.827986 1.419730 5.559723
v -4.759902 1.231642 5.559723
v -4.663616 1.231642 5.559723
v -4.595532 1.419731 5.559723
v -4.595532 1.685728 5.559723
v -4.663616 1.873817 5.559723
v -4.843276 2.793954 -1.916466
v -5.063928 2.453182 -1.916466
v -5.063928 1.926359 -1.916466
v -4.843276 1.585587 -1.916466
v -4.580242 1.585587 -1.916466
v -4.359591 1.926360 -1.916466
v -4.359591 2.453182 -1.916466
v -4.580242 2.793954 -1.916466
v -4.903510 2.904714 -1.988866
v -5.174687 2.485909 -1.988866
v -5.174687 1.893632 -1.988866
v -4.903510 1.474828 -1.988866
v -4.520008 1.474828 -1.988866
v -4.248831 1.893632 -1.988866
v -4.248831 2.485910 -1.988866
v -4.520008 2.904714 -1.988866
v -4.872125 2.847002 -1.988866
v -5.116976 2.468857 -1.988866
v -5.116976 1.910685 -1.988866
v -4.872125 1.532539 -1.988866
v -4.551393 1.532539 -1.988866
v -4.306542 1.910685 -1.988866
v -4.306542 2.468857 -1.988866
v -4.551393 2.847002 -1.988866
v -4.735926 2.525513 -2.755072
v -4.706736 2.537604 -2.755072
v -4.706736 2.816323 -2.498309
v -4.706736 2.816323 -1.762236
v -4.933010 2.722597 -2.498309
v -4.933010 2.722597 -1.762236
v -5.026736 2.496323 -2.498309
v -5.026736 2.496323 -1.762236
v -4.933010 2.270049 -2.498309
v -4.933010 2.270049 -1.762236
v -4.706736 2.176323 -2.498309
v -4.706736 2.176323 -1.762236
v -4.480462 2.270049 -2.498309
v -4.480462 2.270049 -1.762236
v -4.386736 2.496323 -2.498309
v -4.386736 2.496323 -1.762236
v -4.480462 2.722597 -2.498309
v -4.480462 2.722597 -1.762236
v -4.748017 2.496323 -2.755072
v -4.735926 2.467133 -2.755072
v -4.706736 2.455042 -2.755072
v -4.677546 2.467133 -2.755072
v -4.665455 2.496323 -2.755072
v -4.677546 2.525513 -2.755072
v -4.560325 3.120680 -2.481835
v -4.856001 3.120680 -2.481835
v -4.534084 4.407249 -2.411939
v -4.882241 4.407249 -2.551732
v -4.620415 4.659747 -2.446602
v -4.795910 4.659747 -2.517067
v -4.669017 2.526195 -2.481835
v -4.747308 2.526195 -2.481835
v -4.074532 2.339211 -2.481835
v -4.074532 2.634888 -2.481835
v -2.787963 2.312971 -2.411939
v -2.787963 2.661128 -2.551732
v -2.535466 2.399302 -2.446602
v -2.535466 2.574797 -2.517067
v -4.669017 2.447904 -2.481835
v -4.856001 1.853419 -2.481835
v -4.560325 1.853419 -2.481835
v -4.882241 0.566850 -2.411939
v -4.534084 0.566850 -2.551732
v -4.795910 0.314352 -2.446603
v -4.620415 0.314352 -2.517068
v -4.747308 2.447904 -2.481835
v -5.341794 2.634888 -2.481835
v -5.341794 2.339211 -2.481835
v -6.628363 2.661128 -2.411939
v -6.628363 2.312971 -2.551732
v -6.880860 2.574797 -2.446602
v -6.880860 2.399302 -2.517067
v -0.001513 7.429619 15.139246
v -0.001513 2.599321 15.139246
v 0.098487 7.429619 13.655359
v 0.098487 2.599321 7.678436
v 0.098487 4.148732 11.873936
v -0.101513 7.429619 13.655359
v -0.101513 2.599321 7.678436
v -0.101513 4.148732 11.873936
v -0.051420 1.747128 15.466671
v 0.085922 1.747128 15.466671
v -0.051420 2.354290 15.466671
v 0.085922 2.354290 15.466671
v -0.051423 2.354291 12.220253
v -0.051423 1.459719 12.220251
v 0.085919 1.459719 12.220251
v 0.085919 2.354291 12.220251
v -0.001513 2.841314 4.368000
v 5.639159 2.841314 4.368000
v -0.001513 2.991314 0.878190
v 5.639159 2.991314 0.878190
v -0.001513 2.411200 12.188982
v 5.564327 3.509124 13.891403
v 14.618958 2.475340 4.368000
v 14.618958 2.625340 2.842521
v -5.642185 2.841314 4.368000
v -5.642185 2.991314 0.878190
v -5.567353 3.434126 15.342051
v -5.567353 3.509124 13.891403
v -14.621984 2.625340 2.842521
v -0.001513 2.691314 0.878190
v 5.639159 2.691314 0.878190
v -0.001513 2.336202 15.229803
v 5.564327 3.434126 15.342051
v -0.001513 2.261200 12.188982
v 5.564327 3.359124 13.891403
v 14.618958 2.325339 2.842521
v -5.642185 2.691314 0.878190
v -5.567353 3.359124 13.891403
v -14.621984 2.475340 4.368000
v -14.621984 2.325339 2.842521
v -10.418743 2.620424 3.757985
v -10.418743 2.672864 3.757985
v -10.418743 2.646644 4.368000
v 5.702304 2.812521 3.757985
v 5.702304 2.838741 4.368000
v 5.702304 2.864960 3.757985
v -5.685725 2.813320 3.757985
v -5.685725 2.839540 4.368000
v -5.685725 2.865760 3.757985
v 10.435322 2.619625 3.757985
v 10.435322 2.672065 3.757985
v 10.435322 2.645845 4.368000
v -10.418743 2.620425 3.752992
v -10.418743 2.672864 3.752992
v -10.418743 2.646644 4.363007
v 5.702305 2.812521 3.752992
v 5.702305 2.838741 4.363007
v 5.702305 2.864960 3.752992
v -5.685725 2.813320 3.752992
v -5.685725 2.839540 4.363007
v -5.685725 2.865760 3.752992
v 10.435322 2.619625 3.752992
v 10.435322 2.672065 3.752992
v 10.435322 2.645845 4.363007
v -0.004882 1.689550 -7.731906
v -0.004882 1.934300 -6.935112
v 0.436862 1.589117 -7.731906
v 0.686243 1.911400 -6.576354
v 0.800271 1.200361 -7.723111
v 1.344939 1.435456 -6.332481
v 0.768025 0.711446 -7.731907
v 1.296447 0.711446 -6.332481
v 0.458939 0.317979 -7.731907
v 0.776046 0.207574 -6.332482
v -0.004881 0.190264 -7.731907
v -0.004881 0.029552 -6.332482
v -0.468702 0.317979 -7.731907
v -0.785809 0.207574 -6.332482
v -0.777788 0.711446 -7.731907
v -1.306210 0.711446 -6.332481
v -0.810034 1.200361 -7.723111
v -1.354703 1.435455 -6.332481
v -0.446626 1.589117 -7.731906
v -0.696008 1.911399 -6.576354
v -0.004881 1.324346 -8.535389
v 0.247313 1.267008 -8.535389
v 0.453050 1.043486 -8.535389
v 0.431933 0.711446 -8.535389
v 0.247313 0.525729 -8.535389
v -0.004881 0.468391 -8.535389
v -0.257076 0.525729 -8.535389
v -0.441696 0.711446 -8.535389
v -0.462813 1.043486 -8.535389
v -0.257077 1.267008 -8.535389
v -0.004881 0.999883 -8.828285
v 0.056117 0.986015 -8.828285
v 0.117115 0.896368 -8.828285
v 0.100771 0.844611 -8.828285
v 0.056117 0.806722 -8.828285
v -0.004881 0.792854 -8.828285
v -0.065880 0.806722 -8.828285
v -0.110533 0.844611 -8.828285
v -0.126878 0.896368 -8.828285
v -0.065880 0.986015 -8.828285
v -0.004882 2.836979 -5.527274
v 0.825397 2.648210 -5.527274
v 1.433204 2.132483 -5.527274
v 1.655676 1.427987 -5.527274
v 1.433204 0.711446 -5.527274
v 0.825397 0.207763 -5.527274
v -0.004882 0.018994 -5.527274
v -0.835160 0.207763 -5.527274
v -1.442967 0.711446 -5.527274
v -1.665440 1.427986 -5.527274
v -1.442968 2.132482 -5.527274
v -0.835162 2.648209 -5.527274
v 0.825396 2.648210 4.154347
v -0.004883 2.836979 4.154347
v 1.433203 2.132483 4.154347
v 1.655675 1.427987 4.154347
v 1.433203 0.723490 4.154347
v 0.825396 0.207764 4.154347
v -0.004883 0.018995 4.154347
v -0.835162 0.207763 4.154347
v -1.442968 0.723490 4.154347
v -1.665441 1.427986 4.154347
v -1.442969 2.132483 4.154347
v -0.835163 2.648210 4.154347
v -0.004883 0.439194 9.063339
v 0.660759 0.590532 9.063339
v -1.157810 1.003995 9.063339
v -0.670526 0.590532 9.063339
v -0.670527 2.547061 9.063339
v -1.157811 2.133597 9.063339
v 1.148043 1.003995 9.063339
v 1.326402 1.568796 9.063339
v -0.004884 2.698399 9.063339
v 1.148043 2.133598 9.063339
v -1.336169 1.568796 9.063339
v 0.660759 2.547061 9.063339
v -0.004884 2.270279 15.512367
v 0.121082 2.298918 15.512367
v -0.223064 2.377162 15.512367
v -0.130850 2.298918 15.512367
v -0.130851 2.669172 15.512367
v -0.223064 2.590928 15.512367
v 0.213295 2.377162 15.512367
v 0.247048 2.484045 15.512367
v -0.004884 2.697811 15.512367
v 0.213295 2.590928 15.512367
v -0.256817 2.484045 15.512367
v 0.121082 2.669172 15.512367
v -0.004882 2.684209 -5.959736
v 1.279264 0.915449 6.972513
v -1.289030 0.915449 6.972513
v 1.238651 0.915449 7.505955
v -1.248418 0.915449 7.505955
v -1.551286 1.478619 5.846357
v 1.541520 1.478620 5.846358
v -1.634690 1.478619 4.408779
v 1.624924 1.478620 4.408779
v -1.533242 1.774156 4.548744
v 1.523477 1.774156 4.548744
v -1.528546 1.618583 5.476469
v 1.518781 1.618583 5.476469
v -1.479418 1.774156 5.476469
v 1.469652 1.774156 5.476470
v 1.249086 2.159266 6.792675
v -1.258852 2.159265 6.792675
v -1.488474 1.503664 6.792675
v -1.385569 1.829530 6.792675
v -1.289711 2.133082 6.792675
v 1.279944 2.133082 6.792675
v 0.995895 2.339105 7.505955
v -1.005661 2.339104 7.505955
v 1.197445 2.159266 7.685795
v -1.207210 2.159265 7.685795
v 1.026740 2.339105 6.972513
v -1.036506 2.339104 6.972513
v -1.498966 1.618583 5.986320
v 1.489200 1.618583 5.986320
v -1.449838 1.774156 5.986320
v 1.440072 1.774156 5.986320
v -1.564626 1.478619 5.616432
v 1.554860 1.478620 5.616432
v -1.413760 1.914119 5.846357
v 1.403993 1.914120 5.846357
v -1.427099 1.914119 5.616432
v 1.417333 1.914120 5.616432
v -1.428568 1.529282 7.685795
v -1.237831 2.133284 7.685795
v 1.228064 2.133285 7.685795
v 1.418801 1.529283 7.685795
v 1.281751 1.095289 7.685795
v -1.291517 1.095288 7.685795
v 1.349747 1.095289 6.792675
v -1.359514 1.095288 6.792675
v 1.478708 1.503665 6.792675
v 1.375803 1.829531 6.792675
v -1.582370 1.618583 4.548744
v 1.572605 1.618583 4.548745
v 1.639686 1.478620 0.899755
v -1.649451 1.478619 0.899754
v 1.595487 1.618583 1.269644
v -1.605253 1.618583 1.269644
v 1.639686 1.478620 1.129681
v -1.649451 1.478619 1.129680
v 1.546359 1.774156 1.269644
v -1.556124 1.774156 1.269644
v -1.497164 1.914119 4.408779
v 1.487398 1.914120 4.408779
v -1.511925 1.914119 1.129680
v 1.502160 1.914120 1.129681
v 1.639686 1.478620 -0.337854
v -1.649451 1.478619 -0.337854
v 1.639686 1.478620 -0.107929
v -1.649451 1.478619 -0.107929
v 1.595487 1.618583 0.032035
v -1.605252 1.618583 0.032035
v 1.546359 1.774156 0.759792
v -1.556124 1.774156 0.759791
v -1.511925 1.914119 -0.107929
v 1.502160 1.914120 -0.107929
v 1.546358 1.774156 4.038891
v -1.556125 1.774156 4.038891
v -1.648030 1.478619 4.178854
v 1.638264 1.478620 4.178854
v 1.509898 1.889613 4.154347
v -1.519664 1.889613 4.154347
v -1.510504 1.914119 4.178854
v 1.500738 1.914120 4.178854
v -1.511925 1.914119 0.899755
v 1.502160 1.914120 0.899755
v 1.546359 1.774156 0.032036
v -1.556124 1.774156 0.032035
v 1.595487 1.618583 0.759792
v -1.605252 1.618583 0.759791
v 1.631947 1.503126 4.154347
v -1.641713 1.503126 4.154348
v 1.595487 1.618583 4.038891
v -1.605253 1.618583 4.038891
v 1.639686 1.478620 -1.679280
v -1.649450 1.478619 -1.679280
v 1.546359 1.774156 -0.477817
v -1.556124 1.774156 -0.477818
v 1.595487 1.618583 -0.477818
v -1.605252 1.618583 -0.477818
v 1.595487 1.618583 -1.819243
v 1.570469 1.697806 -1.819244
v -1.605252 1.618583 -1.819243
v -1.443521 2.130728 -3.889174
v -1.442968 2.132482 -3.887421
v 1.433203 2.132483 -3.887420
v 1.433757 2.130728 -3.889174
v -1.511925 1.914119 -0.337854
v 1.502160 1.914120 -0.337853
v 1.595487 1.618583 -1.309391
v -1.605252 1.618583 -1.309391
v -1.556123 1.774156 -1.309391
v 1.546359 1.774156 -1.309391
v -1.511925 1.914119 -1.679280
v 1.502160 1.914120 -1.679280
v -1.443521 2.130728 -4.191720
v 1.433757 2.130728 -4.191720
v -0.948007 2.552460 -4.195975
v 0.938242 2.552460 -4.195975
v -1.107261 2.417332 -3.884919
v 1.097497 2.417332 -3.884919
v -1.191954 2.345469 -3.837787
v 1.182189 2.345470 -3.837787
v -1.384472 2.182116 -3.837787
v 1.374709 2.182116 -3.837787
v 1.639686 1.478620 -1.449354
v -1.649450 1.478619 -1.449354
v -1.556123 1.774156 -1.819243
v 1.546359 1.774156 -1.819243
v -1.580234 1.697806 -1.819244
v -0.984439 2.521548 -4.243107
v 0.974674 2.521548 -4.243107
v -1.384472 2.182116 -4.243107
v 1.374709 2.182116 -4.243107
v -1.511925 1.914119 -1.449354
v 1.502160 1.914120 -1.449354
v -0.931780 2.566228 -4.777161
v 0.922016 2.566228 -4.777161
v -0.992342 2.514841 -4.828547
v 0.982578 2.514841 -4.828547
v -0.931780 2.566228 -5.410933
v 0.922016 2.566228 -5.410933
v -1.442968 2.132482 -4.193474
v 1.433204 2.132483 -4.193474
v -0.931780 2.566228 -5.003855
v 0.922016 2.566228 -5.003855
v -1.384473 2.182116 -4.828547
v 1.374709 2.182116 -4.828547
v -1.443521 2.130728 -4.370082
v 1.433757 2.130728 -4.370082
v -0.992343 2.514841 -4.318695
v 0.982578 2.514841 -4.318695
v -1.384472 2.182116 -4.318695
v 1.374709 2.182116 -4.318695
v -0.992342 2.514841 -4.952467
v 0.982578 2.514841 -4.952467
v -1.384473 2.182116 -4.952467
v 1.374709 2.182116 -4.952467
v -1.443521 2.130728 -4.777161
v 1.433757 2.130728 -4.777161
v -0.931780 2.566228 -4.370082
v 0.922016 2.566228 -4.370082
v -1.443521 2.130728 -5.003855
v 1.433758 2.130728 -5.003855
v -0.992342 2.514841 -5.462320
v 0.982578 2.514841 -5.462320
v -1.384473 2.182116 -5.462320
v 1.374709 2.182116 -5.462320
v -1.443521 2.130728 -5.410933
v 1.433758 2.130728 -5.410933
v -1.442968 2.132482 -5.002101
v 1.433204 2.132483 -5.002101
v -1.442968 2.132482 -4.778913
v 1.433204 2.132483 -4.778914
v -1.442968 2.132482 -4.368328
v 1.433204 2.132483 -4.368328
v -1.442968 2.132482 -5.412686
v 1.433204 2.132483 -5.412687
v -0.906192 2.566228 -5.583975
v 0.896428 2.566228 -5.583975
v -1.394214 2.130728 -5.583975
v -1.396228 2.162655 -5.552048
v 1.384449 2.130728 -5.583975
v -1.382075 2.182116 -5.532587
v 1.372311 2.182116 -5.532587
v -0.989944 2.514841 -5.532587
v 0.980180 2.514841 -5.532587
v 1.386464 2.162656 -5.552047
v -0.838455 2.566228 -5.734074
v 0.828692 2.566228 -5.734074
v 0.039369 2.531912 -6.132947
v -0.049131 2.531912 -6.132947
v 0.773353 2.554247 -5.873335
v -0.783114 2.554247 -5.873336
v -0.792921 2.555031 -5.864219
v 0.783156 2.555031 -5.864221
v -0.831613 2.130728 -6.219478
v 0.821848 2.130728 -6.219478
v 0.722144 2.151525 -6.312787
v -0.731908 2.151525 -6.312787
v 0.039891 2.205886 -6.556700
v -0.049655 2.205886 -6.556700
v 0.782135 2.552780 -5.872359
v -0.791900 2.552780 -5.872360
v -1.556123 1.774156 -0.477818
v -1.580234 1.697806 -1.819243
v -1.605252 1.618583 -0.477818
v -1.605252 1.618583 -1.819243
v -1.605252 1.618583 -1.309391
v -1.649451 1.478619 -0.337854
v -1.649451 1.478619 -1.449354
v -1.649451 1.478619 -1.679280
v -1.556124 1.774156 4.038891
v -1.519664 1.889612 4.154346
v -1.556124 1.774156 0.759791
v -1.556124 1.774156 1.269644
v -1.605252 1.618583 0.759791
v -1.605253 1.618583 4.038891
v -1.556124 1.774156 0.032035
v -1.641712 1.503127 4.154346
v -1.649451 1.478619 0.899755
v -1.605252 1.618583 0.032035
v -1.605252 1.618583 1.269644
v -1.649451 1.478619 -0.107929
v -1.649451 1.478619 1.129680
v 1.478707 1.503665 6.792675
v 1.418801 1.529283 7.685795
v 1.349747 1.095289 6.792675
v 1.281751 1.095289 7.685795
v 1.279264 0.915449 6.972515
v 1.238651 0.915449 7.505955
v -1.510503 1.914119 4.178854
v -1.497164 1.914119 4.408779
v -1.648030 1.478619 4.178854
v -1.582370 1.618583 4.548744
v -1.634689 1.478619 4.408779
v -1.488474 1.503664 6.792675
v -1.428568 1.529282 7.685797
v -1.427099 1.914119 5.616432
v -1.413759 1.914119 5.846357
v -1.479418 1.774156 5.476469
v -1.528546 1.618583 5.476469
v -1.449838 1.774156 5.986320
v -1.533243 1.774156 4.548744
v -1.498967 1.618583 5.986320
v -1.564625 1.478619 5.616432
v -1.551286 1.478619 5.846357
v -1.359513 1.095288 6.792675
v -1.291516 1.095288 7.685795
v -1.289030 0.915449 6.972513
v -1.248417 0.915449 7.505955
v -1.289711 2.133082 6.792675
v -1.237831 2.133284 7.685797
v 0.995896 2.339105 7.505955
v 1.249086 2.159266 6.792675
v 1.026739 2.339105 6.972513
v 1.279944 2.133082 6.792675
v 1.197445 2.159266 7.685795
v 1.228064 2.133285 7.685797
v -1.258852 2.159265 6.792675
v -1.036506 2.339104 6.972513
v -1.207211 2.159265 7.685797
v -1.005662 2.339104 7.505955
v 1.509899 1.889612 4.154346
v 1.500738 1.914120 4.178854
v 1.487398 1.914120 4.408781
v 1.513280 1.813714 4.509186
v 1.631946 1.503127 4.154346
v 1.638264 1.478620 4.178854
v 1.572605 1.618583 4.548744
v 1.624924 1.478620 4.408779
v 1.417333 1.914120 5.616432
v 1.403993 1.914120 5.846357
v 1.469652 1.774156 5.476469
v 1.518781 1.618583 5.476467
v 1.440072 1.774156 5.986320
v 1.523477 1.774156 4.548744
v 1.489200 1.618583 5.986320
v 1.554859 1.478620 5.616432
v 1.541520 1.478620 5.846357
v 0.722144 2.151525 -6.312787
v 0.821847 2.130728 -6.219478
v 1.384449 2.130728 -5.583975
v 1.386464 2.162656 -5.552047
v 0.773352 2.554247 -5.873335
v 0.039890 2.205886 -6.556700
v 0.039367 2.531911 -6.132947
v -0.049654 2.205886 -6.556700
v -0.049131 2.531911 -6.132947
v -0.731908 2.151525 -6.312787
v -0.783114 2.554247 -5.873336
v -0.831612 2.130728 -6.219478
v -1.394214 2.130728 -5.583975
v -1.396227 2.162655 -5.552048
v -0.792921 2.555032 -5.864218
v -0.838456 2.566228 -5.734074
v -0.906191 2.566228 -5.583975
v -0.989944 2.514841 -5.532587
v -1.382074 2.182116 -5.532587
v 0.783156 2.555031 -5.864220
v 0.828692 2.566228 -5.734074
v 0.896428 2.566228 -5.583975
v 0.980180 2.514841 -5.532587
v 1.372311 2.182116 -5.532587
v -0.992342 2.514841 -5.462320
v -0.984438 2.521548 -4.243107
v -0.931780 2.566228 -5.003855
v -0.931780 2.566228 -4.370082
v -0.931780 2.566228 -4.777161
v -0.931779 2.566228 -5.410933
v -0.992342 2.514841 -4.828547
v -1.384472 2.182116 -4.828547
v -1.384472 2.182116 -5.462320
v -0.992342 2.514841 -4.952467
v -0.992342 2.514841 -4.318695
v -0.948006 2.552460 -4.195975
v -1.384472 2.182116 -4.952467
v -1.191953 2.345469 -3.837787
v -1.107260 2.417332 -3.884919
v -1.442967 2.132482 -5.412686
v -1.443521 2.130728 -5.410933
v -1.442968 2.132482 -4.193474
v -1.443521 2.130728 -4.191720
v -1.442968 2.132482 -4.368329
v -1.443521 2.130728 -4.370082
v -1.442967 2.132482 -5.002101
v -1.443521 2.130728 -5.003855
v -1.442968 2.132482 -4.778914
v -1.443521 2.130728 -4.777161
v -1.442968 2.132482 -3.887421
v -1.443521 2.130728 -3.889174
v -1.556123 1.774156 -1.819243
v -1.511925 1.914119 -0.337854
v -1.511924 1.914119 -1.679280
v -1.511924 1.914119 -1.449354
v -1.556123 1.774156 -1.309391
v -1.511925 1.914119 0.899755
v -1.511925 1.914119 -0.107929
v -1.511925 1.914119 1.129680
v -1.384473 2.182116 -4.318695
v -1.384473 2.182116 -4.243107
v -1.384473 2.182116 -3.837787
v 0.982578 2.514841 -5.462320
v 1.433204 2.132483 -5.412686
v 0.974674 2.521548 -4.243107
v 0.922016 2.566228 -5.003855
v 0.922016 2.566228 -4.370082
v 0.922016 2.566228 -4.777161
v 0.922016 2.566228 -5.410933
v 0.982578 2.514841 -4.828547
v 1.374709 2.182116 -4.828547
v 1.374709 2.182116 -5.462320
v 0.982578 2.514841 -4.952467
v 0.982578 2.514841 -4.318695
v 0.938242 2.552460 -4.195975
v 1.433204 2.132483 -4.193474
v 1.374709 2.182116 -4.952467
v 1.374709 2.182116 -4.318695
v 1.433204 2.132483 -4.368328
v 1.433204 2.132483 -5.002101
v 1.433204 2.132483 -4.778914
v 1.374709 2.182116 -4.243107
v 1.433203 2.132483 -3.887421
v 1.374709 2.182116 -3.837787
v 1.182189 2.345470 -3.837787
v 1.097497 2.417332 -3.884919
v 1.546359 1.774156 -0.477817
v 1.595487 1.618583 -0.477817
v 1.570469 1.697806 -1.819243
v 1.595487 1.618583 -1.819243
v 1.595487 1.618583 -1.309391
v 1.639686 1.478620 -0.337854
v 1.639686 1.478620 -1.449355
v 1.639686 1.478620 -1.679280
v 1.546358 1.774156 4.038891
v 1.546359 1.774156 0.759792
v 1.546359 1.774156 1.269644
v 1.595487 1.618583 0.759792
v 1.595487 1.618583 4.038891
v 1.546359 1.774156 0.032035
v 1.639686 1.478620 0.899755
v 1.595487 1.618583 0.032035
v 1.595487 1.618583 1.269644
v 1.639686 1.478620 -0.107929
v 1.639686 1.478620 1.129680
v 1.433758 2.130728 -5.410933
v 1.433757 2.130728 -4.191720
v 1.433758 2.130728 -4.370082
v 1.433758 2.130728 -5.003855
v 1.433757 2.130728 -4.777161
v 1.433757 2.130728 -3.889174
v 1.546359 1.774156 -1.819243
v 1.502160 1.914120 -0.337854
v 1.502160 1.914120 -1.679280
v 1.502160 1.914120 -1.449354
v 1.546359 1.774156 -1.309391
v 1.502160 1.914120 0.899755
v 1.502160 1.914120 -0.107929
v 1.502160 1.914120 1.129681
v 1.400484 1.618583 7.515448
v -1.410251 1.618583 7.515448
v -1.325044 1.914120 7.375483
v 1.315277 1.914120 7.375483
v -1.338383 1.914120 7.145557
v 1.328617 1.914120 7.145557
v -1.361122 1.774156 7.515448
v 1.351356 1.774156 7.515448
v 1.430064 1.618583 7.005594
v -1.439832 1.618583 7.005594
v 1.457331 1.512806 7.111372
v -1.467097 1.512806 7.111372
v 1.443932 1.478620 7.145557
v -1.453699 1.478620 7.145557
v 1.426427 1.478620 7.375483
v -1.436194 1.478620 7.375483
v 1.436731 1.521615 7.418480
v -1.446498 1.521615 7.418478
v 1.380936 1.774156 7.005594
v -1.390703 1.774156 7.005594
v 4.720356 1.566029 5.859723
v 4.713547 1.584838 5.859723
v 4.720356 1.539430 5.859723
v 4.713547 1.520621 5.859723
v 4.703918 1.520621 5.859723
v 4.697110 1.539430 5.859723
v 4.697110 1.566029 5.859723
v 4.703918 1.584838 5.859723
v -4.723382 1.566029 5.859723
v -4.716573 1.584838 5.859723
v -4.723382 1.539429 5.859723
v -4.716573 1.520620 5.859723
v -4.706945 1.520620 5.859723
v -4.700136 1.539429 5.859723
v -4.700136 1.566029 5.859723
v -4.706945 1.584838 5.859723
vn -0.5774 -0.5773 0.5773
vn 0.5773 -0.5774 0.5773
vn -0.6794 -0.2110 0.7028
vn 0.6794 -0.2110 0.7028
vn -0.6794 -0.2110 -0.7028
vn -0.5773 -0.5774 -0.5773
vn 0.5774 -0.5773 -0.5773
vn 0.6794 -0.2110 -0.7028
vn 0.7016 -0.1788 0.6898
vn -0.7016 -0.1788 0.6898
vn 0.7016 -0.1788 -0.6898
vn -0.7016 -0.1788 -0.6898
vn 0.5774 0.5774 0.5773
vn -0.5773 0.5774 0.5773
vn 0.5773 0.5774 -0.5773
vn -0.5774 0.5774 -0.5773
vn -0.9049 -0.0000 -0.4257
vn -0.3692 -0.0000 -0.9293
vn 0.9048 -0.0000 -0.4257
vn 0.3692 -0.0000 -0.9293
vn -0.9048 -0.2129 -0.3687
vn -0.3692 -0.4647 -0.8048
vn 0.9049 -0.2129 -0.3687
vn 0.3692 -0.4647 -0.8048
vn -0.9049 -0.3687 -0.2129
vn -0.3692 -0.8048 -0.4647
vn 0.9048 -0.3687 -0.2129
vn 0.3692 -0.8048 -0.4647
vn -0.9048 -0.4257 -0.0000
vn -0.3692 -0.9293 -0.0000
vn 0.9049 -0.4257 -0.0000
vn 0.3692 -0.9293 -0.0000
vn -0.9049 -0.3687 0.2129
vn -0.3692 -0.8048 0.4647
vn 0.9048 -0.3687 0.2129
vn 0.3692 -0.8048 0.4647
vn -0.9048 -0.2129 0.3687
vn -0.3692 -0.4647 0.8048
vn 0.9048 -0.2129 0.3687
vn 0.3692 -0.4647 0.8048
vn -0.9049 -0.0000 0.4257
vn -0.3692 -0.0000 0.9293
vn 0.9048 -0.0000 0.4257
vn 0.3692 -0.0000 0.9293
vn -0.9048 0.2129 0.3687
vn -0.3692 0.4647 0.8048
vn 0.9049 0.2129 0.3687
vn 0.3692 0.4647 0.8048
vn -0.9049 0.3687 0.2129
vn -0.3692 0.8048 0.4647
vn 0.9048 0.3687 0.2129
vn 0.3692 0.8048 0.4647
vn -0.9048 0.4257 -0.0000
vn -0.3692 0.9293 -0.0000
vn 0.9049 0.4257 -0.0000
vn 0.3693 0.9293 -0.0000
vn -0.9049 0.3687 -0.2129
vn -0.3692 0.8048 -0.4647
vn 0.9048 0.3687 -0.2129
vn 0.3692 0.8048 -0.4647
vn -0.9048 0.2129 -0.3687
vn -0.3692 0.4647 -0.8048
vn 0.9049 0.2129 -0.3687
vn 0.3692 0.4647 -0.8048
vn 0.3692 0.9293 -0.0000
vn 0.5774 -0.5773 0.5773
vn -0.5773 -0.5774 0.5773
vn 0.5773 -0.5774 -0.5773
vn -0.5774 -0.5773 -0.5773
vn -0.5774 0.5774 0.5773
vn 0.5773 0.5774 0.5773
vn -0.5773 0.5774 -0.5773
vn 0.5774 0.5774 -0.5773
vn 0.9049 -0.0000 -0.4257
vn -0.9048 -0.0000 -0.4257
vn 0.9048 -0.2129 -0.3687
vn -0.9049 -0.2129 -0.3687
vn 0.9049 -0.3687 -0.2129
vn -0.9048 -0.3687 -0.2129
vn 0.9048 -0.4257 -0.0000
vn -0.9049 -0.4257 -0.0000
vn 0.9049 -0.3687 0.2129
vn -0.9048 -0.3687 0.2129
vn -0.9049 -0.2129 0.3687
vn 0.9049 -0.0000 0.4257
vn -0.9048 -0.0000 0.4257
vn 0.9048 0.2129 0.3687
vn 0.9049 0.3687 0.2129
vn -0.9048 0.3687 0.2129
vn 0.9048 0.4257 -0.0000
vn -0.9049 0.4257 -0.0000
vn 0.9049 0.3687 -0.2129
vn -0.9048 0.3687 -0.2129
vn 0.9048 0.2129 -0.3687
vn -0.9049 0.2129 -0.3687
vn 0.9049 -0.2129 0.3687
vn -0.1724 0.9506 0.2582
vn 0.1724 0.9506 0.2582
vn -0.8898 0.1420 0.4337
vn 0.8898 0.1420 0.4337
vn -0.6515 -0.2195 0.7262
vn 0.6515 -0.2195 0.7262
vn -0.5773 -0.7972 -0.1764
vn 0.5773 -0.7972 -0.1764
vn -0.5637 0.4946 0.6615
vn 0.5637 0.4946 0.6615
vn -0.5841 -0.2525 -0.7714
vn -0.9537 0.0789 -0.2903
vn 0.9537 0.0788 -0.2903
vn 0.5841 -0.2525 -0.7714
vn 0.7210 0.2358 -0.6516
vn -0.7210 0.2358 -0.6516
vn 0.5939 0.6443 -0.4818
vn -0.5939 0.6443 -0.4818
vn 0.5774 0.7972 0.1764
vn -0.5773 0.7972 0.1764
vn 0.5773 0.1764 -0.7972
vn -0.5774 0.1764 -0.7972
vn 0.4607 0.8843 -0.0758
vn 0.1071 0.9656 0.2369
vn 0.9510 0.2980 -0.0827
vn 0.7398 0.6398 0.2081
vn 0.9528 -0.2866 -0.1005
vn 0.9573 -0.2632 0.1199
vn 0.4663 -0.8747 -0.1324
vn 0.4892 -0.8698 0.0638
vn -0.4663 -0.8747 -0.1324
vn -0.4892 -0.8698 0.0638
vn -0.9528 -0.2866 -0.1005
vn -0.9573 -0.2632 0.1199
vn -0.9510 0.2980 -0.0827
vn -0.7398 0.6398 0.2081
vn -0.4606 0.8843 -0.0758
vn -0.1071 0.9656 0.2369
vn 0.9189 0.1530 0.3636
vn 0.4532 0.6974 0.5552
vn 0.9324 -0.2040 0.2983
vn 0.4949 -0.7819 0.3790
vn -0.4949 -0.7819 0.3790
vn -0.9324 -0.2040 0.2983
vn -0.9189 0.1530 0.3636
vn -0.4532 0.6974 0.5552
vn -0.2489 -0.4577 -0.8536
vn -0.4830 -0.1427 -0.8639
vn -0.4830 0.1427 -0.8639
vn -0.2489 0.4577 -0.8536
vn 0.2489 0.4577 -0.8536
vn 0.4830 0.1427 -0.8639
vn 0.4829 -0.1427 -0.8639
vn 0.2489 -0.4577 -0.8536
vn 0.3482 0.6071 -0.7143
vn 0.6654 0.1885 -0.7223
vn 0.6654 -0.1885 -0.7223
vn 0.3482 -0.6071 -0.7143
vn -0.3482 -0.6071 -0.7143
vn -0.6654 -0.1885 -0.7223
vn -0.6654 0.1885 -0.7223
vn -0.3482 0.6071 -0.7143
vn -0.1445 -0.2657 -0.9532
vn -0.3583 -0.1059 -0.9276
vn -0.3583 0.1059 -0.9276
vn -0.1445 0.2657 -0.9532
vn 0.1445 0.2657 -0.9532
vn 0.3583 0.1059 -0.9276
vn 0.3583 -0.1059 -0.9276
vn 0.1445 -0.2657 -0.9532
vn 0.3090 0.3090 -0.8995
vn -0.0000 0.4370 -0.8995
vn -0.0000 0.9293 -0.3694
vn -0.0000 0.7764 0.6303
vn 0.6571 0.6571 -0.3694
vn 0.5490 0.5490 0.6303
vn 0.9293 -0.0000 -0.3694
vn 0.7764 -0.0000 0.6303
vn 0.6571 -0.6571 -0.3694
vn 0.5490 -0.5490 0.6303
vn -0.0000 -0.9293 -0.3694
vn -0.0000 -0.7764 0.6303
vn -0.6571 -0.6571 -0.3694
vn -0.5490 -0.5490 0.6303
vn -0.9293 -0.0000 -0.3694
vn -0.7764 -0.0000 0.6303
vn -0.6571 0.6571 -0.3694
vn -0.5490 0.5490 0.6303
vn 0.4370 -0.0000 -0.8995
vn 0.3090 -0.3090 -0.8995
vn -0.0000 -0.4370 -0.8995
vn -0.3090 -0.3090 -0.8995
vn -0.4370 -0.0000 -0.8995
vn -0.3090 0.3090 -0.8995
vn -0.0000 0.0290 -0.9996
vn -0.0357 0.0200 -0.9992
vn -0.3442 -0.0162 -0.9388
vn -0.3725 -0.0238 -0.9277
vn -0.3726 -0.0000 -0.9280
vn -0.0000 -0.0000 -1.0000
vn -0.0290 -0.0000 -0.9996
vn -0.0200 -0.0357 -0.9992
vn 0.0162 -0.3442 -0.9388
vn 0.0238 -0.3725 -0.9277
vn -0.0000 -0.3726 -0.9280
vn -0.0000 -0.0290 -0.9996
vn 0.0357 -0.0200 -0.9992
vn 0.3442 0.0162 -0.9388
vn 0.3725 0.0238 -0.9277
vn 0.3726 -0.0000 -0.9280
vn 0.0290 -0.0000 -0.9996
vn 0.0200 0.0357 -0.9992
vn -0.0162 0.3442 -0.9388
vn -0.0238 0.3725 -0.9277
vn -0.0000 0.3726 -0.9280
vn -0.4607 0.8843 -0.0758
vn 0.4606 0.8843 -0.0758
vn 0.4830 -0.1427 -0.8639
vn -0.3584 0.1059 -0.9276
vn 0.0357 0.0200 -0.9992
vn 0.3442 -0.0162 -0.9388
vn 0.3725 -0.0238 -0.9277
vn 0.0200 -0.0357 -0.9992
vn -0.0162 -0.3442 -0.9388
vn -0.0238 -0.3725 -0.9277
vn -0.0357 -0.0200 -0.9992
vn -0.3442 0.0162 -0.9388
vn -0.3725 0.0238 -0.9277
vn -0.0200 0.0357 -0.9992
vn 0.0162 0.3442 -0.9388
vn 0.0238 0.3725 -0.9277
vn -0.0000 0.5372 0.8434
vn -0.0000 -0.6585 0.7526
vn 0.6248 0.6787 -0.3860
vn 0.5423 -0.1483 -0.8270
vn 0.8077 0.4434 -0.3886
vn -0.6248 0.6787 -0.3860
vn -0.5423 -0.1483 -0.8270
vn -0.8077 0.4434 -0.3886
vn -0.5821 -0.5490 0.5997
vn 0.5821 -0.5490 0.5998
vn -0.5729 -0.6046 -0.5534
vn 0.5729 -0.6046 -0.5534
vn 0.5773 0.5774 -0.5774
vn -0.0000 -0.0000 1.0000
vn 0.0005 0.0129 0.9999
vn -0.0000 0.7221 -0.6918
vn 0.0912 0.7028 -0.7056
vn -0.0000 0.6063 -0.7952
vn 0.5787 0.6726 -0.4611
vn 0.4763 -0.0193 0.8791
vn 0.6331 0.6087 -0.4782
vn -0.0005 0.0130 0.9999
vn -0.0912 0.7028 -0.7056
vn -0.5200 0.1023 0.8480
vn -0.5787 0.6726 -0.4611
vn -0.6331 0.6087 -0.4782
vn -0.0000 -0.7221 -0.6918
vn 0.0679 -0.6952 -0.7156
vn -0.0000 -0.1449 0.9894
vn 0.5200 0.1023 0.8480
vn -0.0000 -0.6956 -0.7184
vn 0.7005 -0.5381 -0.4688
vn 0.6077 -0.6362 -0.4753
vn -0.0679 -0.6952 -0.7156
vn -0.7005 -0.5381 -0.4688
vn -0.4763 -0.0193 0.8791
vn -0.6077 -0.6362 -0.4753
vn 0.3244 -0.8877 0.3268
vn 0.2563 0.9019 0.3478
vn 0.5366 0.0218 0.8435
vn 0.2563 -0.9019 0.3478
vn 0.5366 -0.0217 0.8436
vn 0.3244 0.8877 0.3268
vn -0.2563 -0.9018 0.3478
vn -0.5366 -0.0219 0.8436
vn -0.3244 0.8877 0.3268
vn -0.3244 -0.8877 0.3268
vn -0.2563 0.9019 0.3478
vn -0.5366 0.0218 0.8435
vn -0.5641 -0.6035 -0.5636
vn -0.5859 0.5778 -0.5683
vn -0.5366 -0.0219 0.8435
vn -0.5859 -0.5778 -0.5683
vn -0.5366 0.0219 0.8435
vn -0.5641 0.6035 -0.5636
vn 0.5859 -0.5778 -0.5683
vn 0.5366 0.0219 0.8436
vn 0.5641 0.6035 -0.5636
vn 0.5641 -0.6035 -0.5636
vn 0.5859 0.5778 -0.5683
vn 0.5366 -0.0219 0.8435
vn -0.0000 0.9362 -0.3515
vn 0.0047 0.9042 -0.4271
vn 0.4588 0.8078 -0.3701
vn 0.4801 0.7135 -0.5104
vn 0.8619 0.3157 -0.3969
vn 0.8778 0.2472 -0.4104
vn 0.8765 -0.3480 -0.3326
vn 0.8816 -0.4149 -0.2252
vn 0.5213 -0.8170 -0.2464
vn 0.4860 -0.8665 -0.1136
vn -0.0000 -0.9770 -0.2130
vn -0.0000 -0.9976 -0.0692
vn -0.5213 -0.8170 -0.2464
vn -0.4860 -0.8665 -0.1136
vn -0.8765 -0.3480 -0.3326
vn -0.8816 -0.4149 -0.2252
vn -0.8619 0.3157 -0.3969
vn -0.8778 0.2472 -0.4104
vn -0.4588 0.8078 -0.3701
vn -0.4979 0.6981 -0.5145
vn -0.0000 0.8167 -0.5770
vn 0.4088 0.7011 -0.5843
vn 0.7634 0.2657 -0.5887
vn 0.7485 -0.3473 -0.5648
vn 0.4031 -0.7347 -0.5457
vn -0.0000 -0.8439 -0.5364
vn -0.4031 -0.7347 -0.5457
vn -0.7485 -0.3473 -0.5648
vn -0.7634 0.2657 -0.5887
vn -0.4088 0.7011 -0.5843
vn -0.0000 0.4018 -0.9157
vn 0.2163 0.3437 -0.9138
vn 0.3935 0.0549 -0.9177
vn 0.3196 -0.2197 -0.9217
vn 0.1705 -0.3575 -0.9182
vn -0.0000 -0.4018 -0.9157
vn -0.1705 -0.3575 -0.9182
vn -0.3196 -0.2197 -0.9217
vn -0.3935 0.0549 -0.9177
vn -0.2163 0.3437 -0.9138
vn -0.0000 0.9863 -0.1651
vn 0.4382 0.8868 -0.1471
vn 0.8076 0.5440 -0.2277
vn 0.9842 0.0016 -0.1770
vn 0.8448 -0.5254 -0.1014
vn 0.4536 -0.8909 -0.0240
vn -0.0000 -1.0000 -0.0067
vn -0.4536 -0.8909 -0.0240
vn -0.8448 -0.5254 -0.1014
vn -0.9842 0.0016 -0.1770
vn -0.8076 0.5440 -0.2277
vn -0.4382 0.8868 -0.1471
vn 0.4485 0.8936 0.0167
vn -0.0000 0.9999 0.0141
vn 0.8342 0.5510 0.0241
vn 0.9994 -0.0027 0.0333
vn 0.8316 -0.5540 0.0399
vn 0.4463 -0.8939 0.0422
vn -0.0000 -0.9991 0.0424
vn -0.4463 -0.8939 0.0422
vn -0.8316 -0.5540 0.0399
vn -0.9994 -0.0027 0.0333
vn -0.8342 0.5510 0.0241
vn -0.4485 0.8936 0.0167
vn -0.0000 -0.9841 0.1777
vn 0.4382 -0.8821 0.1730
vn -0.8195 -0.5518 0.1550
vn -0.4382 -0.8821 0.1730
vn -0.4511 0.8920 0.0275
vn -0.8359 0.5449 0.0660
vn 0.8195 -0.5518 0.1550
vn 0.9931 -0.0094 0.1167
vn -0.0000 0.9999 0.0142
vn 0.8359 0.5449 0.0660
vn -0.9931 -0.0094 0.1167
vn 0.4511 0.8920 0.0275
vn -0.0000 -0.6521 0.7581
vn 0.2986 -0.5873 0.7523
vn -0.5727 -0.3661 0.7335
vn -0.2986 -0.5873 0.7523
vn -0.3257 0.6726 0.6645
vn -0.6016 0.4217 0.6784
vn 0.5727 -0.3661 0.7335
vn 0.7096 0.0198 0.7043
vn -0.0000 0.7509 0.6605
vn 0.6016 0.4217 0.6784
vn -0.7096 0.0198 0.7043
vn 0.3257 0.6726 0.6645
vn -0.0000 0.8750 -0.4842
vn 0.9511 -0.3003 0.0724
vn -0.9511 -0.3003 0.0724
vn 0.9511 -0.3004 0.0724
vn -0.9509 -0.3010 0.0724
vn -0.9521 0.3007 0.0552
vn 0.9522 0.3006 0.0552
vn 0.9521 0.3007 0.0552
vn 0.6465 0.7620 0.0374
vn -0.6465 0.7620 0.0374
vn -0.9978 0.0056 0.0668
vn -0.8287 0.5576 0.0480
vn 0.8287 0.5576 0.0480
vn -0.9977 -0.0054 0.0671
vn -0.8350 0.5481 0.0484
vn 0.8350 0.5481 0.0484
vn 0.9977 -0.0054 0.0671
vn 0.9978 0.0056 0.0668
vn 0.9536 0.3011 -0.0000
vn -0.9536 0.3011 -0.0000
vn -0.1655 0.9862 -0.0000
vn -0.2798 0.9600 -0.0000
vn 0.2222 0.9750 -0.0000
vn 0.9535 0.3011 0.0133
vn -0.9535 0.3011 0.0133
vn 0.9535 0.3011 0.0135
vn -0.9535 0.3011 0.0135
vn -0.8910 0.4540 -0.0000
vn 0.8910 0.4541 -0.0000
vn -0.8494 0.5277 -0.0000
vn -0.6470 0.7625 -0.0000
vn 0.6470 0.7625 -0.0000
vn -0.7272 0.6865 -0.0000
vn -0.9536 0.3012 0.0001
vn -0.8909 0.4541 -0.0000
vn -0.6211 0.7319 -0.2803
vn 0.6211 0.7319 -0.2803
vn -0.6249 0.5500 -0.5540
vn -0.6381 0.6513 -0.4107
vn 0.6249 0.5500 -0.5540
vn -0.6210 0.7319 -0.2803
vn 0.6381 0.6513 -0.4107
vn 0.2817 0.7551 -0.5920
vn -0.2817 0.7551 -0.5920
vn 0.1906 0.9273 -0.3221
vn -0.1906 0.9273 -0.3222
vn -0.2358 0.9287 -0.2864
vn 0.2358 0.9287 -0.2864
vn -0.6242 0.5584 -0.5464
vn 0.6242 0.5584 -0.5464
vn 0.5003 0.6129 -0.6117
vn -0.5129 0.6178 -0.5961
vn 0.3211 0.7439 -0.5860
vn -0.3032 0.7568 -0.5790
vn 0.4277 0.7742 -0.4666
vn -0.4213 0.7723 -0.4754
vn -0.9527 0.3009 0.0419
vn -0.9527 0.3009 0.0418
vn 0.9527 0.3009 0.0419
vn 0.9527 0.3009 0.0418
vn 0.9521 0.3007 0.0553
vn 0.4271 0.6387 -0.6400
vn 0.6376 0.5242 -0.5645
vn 0.6404 0.6207 -0.4524
vn 0.1954 0.8137 -0.5475
vn 0.2325 0.7422 -0.6285
vn 0.1881 0.7785 -0.5988
vn -0.2706 0.7632 -0.5868
vn -0.2484 0.7410 -0.6239
vn -0.3939 0.6705 -0.6287
vn -0.1966 0.8042 -0.5609
vn -0.6376 0.5242 -0.5645
vn -0.6376 0.5243 -0.5645
vn -0.6404 0.6207 -0.4524
vn -0.5445 0.7884 -0.2863
vn 0.5445 0.7884 -0.2863
vn -0.7544 0.6565 -0.0000
vn -0.9536 0.3010 -0.0000
vn -0.7544 0.6564 -0.0000
vn 0.7544 0.6564 -0.0000
vn 0.7544 0.6565 -0.0000
vn 0.7543 0.6565 -0.0000
vn -0.0000 -0.4472 -0.8944
vn 0.9536 0.3010 -0.0000
vn 0.9536 0.3012 -0.0000
vn 0.9978 0.0002 0.0669
vn -0.9978 0.0002 0.0669
vn 0.5944 0.0830 0.7999
vn 0.3938 0.3921 0.8314
vn 0.5944 -0.0830 0.7999
vn 0.3938 -0.3921 0.8314
vn -0.3938 -0.3921 0.8314
vn -0.5944 -0.0830 0.7999
vn -0.5944 0.0830 0.7999
vn -0.3938 0.3920 0.8314
vn -0.3938 0.3921 0.8314
s 1
usemtl cock.000
f 2//2 3//3 1//1
f 5//5 7//7 6//6
f 7//7 4//4 2//2
f 5//5 1//1 3//3
f 11//11 4//4 8//8
f 6//6 2//2 1//1
f 14//14 12//12 10//10
f 10//10 5//5 3//3
f 12//12 8//8 5//5
f 9//9 3//3 4//4
f 15//15 14//14 13//13
f 16//16 11//11 12//12
f 15//15 9//9 11//11
f 13//13 10//10 9//9
f 115//4 114//67 113//66
f 119//69 117//8 118//68
f 116//3 119//69 114//67
f 113//66 117//8 115//4
f 116//3 123//12 120//5
f 114//67 118//68 113//66
f 124//11 126//71 122//9
f 117//8 122//9 115//4
f 117//8 123//12 124//11
f 115//4 121//10 116//3
f 126//71 127//72 125//70
f 123//12 128//73 124//11
f 121//10 127//72 123//12
f 122//9 125//70 121//10
f 326//102 337//113 330//106
f 333//109 324//100 322//98
f 326//102 327//103 325//101
f 324//100 335//111 326//102
f 331//107 333//109 332//108
f 336//112 334//110 331//107
f 336//112 337//113 335//111
f 323//99 332//108 321//97
f 336//112 323//99 325//101
f 325//101 338//114 336//112
f 322//98 332//108 321//97
f 330//106 338//114 329//105
f 342//118 339//115 340//116
f 326//102 340//116 325//101
f 339//115 328//104 326//102
f 327//103 341//117 328//104
f 327//103 340//116 325//101
f 323//99 326//102 325//101
f 321//97 324//100 323//99
f 325//101 330//106 329//105
f 403//179 411//187 401//177
f 394//170 395//171 393//169
f 399//175 411//187 410//186
f 396//172 397//173 395//171
f 407//183 413//189 405//181
f 398//174 399//175 397//173
f 399//175 409//185 397//173
f 400//176 401//177 399//175
f 407//183 392//168 414//190
f 401//177 404//180 403//179
f 405//181 412//188 403//179
f 404//180 405//181 403//179
f 406//182 402//178 398//174
f 410//186 412//188 414//190
f 405//181 408//184 407//183
f 395//171 392//168 393//169
f 408//184 393//169 407//183
f 395//171 409//185 391//167
f 511//187 503//175 501//177
f 495//183 494//170 493//169
f 510//188 501//177 499//179
f 497//181 496//184 495//183
f 513//185 507//171 505//173
f 499//179 498//182 497//181
f 509//189 499//179 497//181
f 499//179 502//178 500//180
f 507//171 492//168 493//169
f 501//177 504//176 502//178
f 512//186 505//173 503//175
f 505//173 504//176 503//175
f 502//178 506//174 494//170
f 512//186 510//188 491//190
f 505//173 508//172 506//174
f 492//168 495//183 493//169
f 493//169 508//172 507//171
f 495//183 509//189 497//181
f 2//2 4//4 3//3
f 5//5 8//8 7//7
f 7//7 8//8 4//4
f 5//5 6//6 1//1
f 11//11 9//9 4//4
f 6//6 7//7 2//2
f 14//14 16//16 12//12
f 10//10 12//12 5//5
f 12//12 11//11 8//8
f 9//9 10//10 3//3
f 15//15 16//16 14//14
f 16//16 15//15 11//11
f 15//15 13//13 9//9
f 13//13 14//14 10//10
f 115//4 116//3 114//67
f 119//69 120//5 117//8
f 116//3 120//5 119//69
f 113//66 118//68 117//8
f 116//3 121//10 123//12
f 114//67 119//69 118//68
f 124//11 128//73 126//71
f 117//8 124//11 122//9
f 117//8 120//5 123//12
f 115//4 122//9 121//10
f 126//71 128//73 127//72
f 123//12 127//72 128//73
f 121//10 125//70 127//72
f 122//9 126//71 125//70
f 326//102 335//111 337//113
f 333//109 334//110 324//100
f 326//102 328//104 327//103
f 324//100 334//110 335//111
f 331//107 334//110 333//109
f 336//112 335//111 334//110
f 336//112 338//114 337//113
f 323//99 331//107 332//108
f 336//112 331//107 323//99
f 325//101 329//105 338//114
f 322//98 333//109 332//108
f 330//106 337//113 338//114
f 342//118 341//117 339//115
f 326//102 339//115 340//116
f 339//115 341//117 328//104
f 327//103 342//118 341//117
f 327//103 342//118 340//116
f 323//99 324//100 326//102
f 321//97 322//98 324//100
f 325//101 326//102 330//106
f 403//179 412//188 411//187
f 394//170 396//172 395//171
f 399//175 401//177 411//187
f 396//172 398//174 397//173
f 407//183 414//190 413//189
f 398//174 400//176 399//175
f 399//175 410//186 409//185
f 400//176 402//178 401//177
f 407//183 393//169 392//168
f 401//177 402//178 404//180
f 405//181 413//189 412//188
f 404//180 406//182 405//181
f 398//174 396//172 394//170
f 394//170 408//184 406//182
f 406//182 404//180 402//178
f 402//178 400//176 398//174
f 398//174 394//170 406//182
f 414//190 392//168 391//167
f 391//167 409//185 410//186
f 410//186 411//187 412//188
f 412//188 413//189 414//190
f 414//190 391//167 410//186
f 405//181 406//182 408//184
f 395//171 391//167 392//168
f 408//184 394//170 393//169
f 395//171 397//173 409//185
f 511//187 512//186 503//175
f 495//183 496//184 494//170
f 510//188 511//187 501//177
f 497//181 498//182 496//184
f 513//185 514//167 507//171
f 499//179 500//180 498//182
f 509//189 510//188 499//179
f 499//179 501//177 502//178
f 507//171 514//167 492//168
f 501//177 503//175 504//176
f 512//186 513//185 505//173
f 505//173 506//174 504//176
f 494//170 496//184 498//182
f 498//182 500//180 502//178
f 502//178 504//176 506//174
f 506//174 508//172 494//170
f 494//170 498//182 502//178
f 491//190 492//168 514//167
f 514//167 513//185 512//186
f 512//186 511//187 510//188
f 510//188 509//189 491//190
f 491//190 514//167 512//186
f 505//173 507//171 508//172
f 492//168 491//190 495//183
f 493//169 494//170 508//172
f 495//183 491//190 509//189
usemtl eng.000
f 344//120 345//121 343//119
f 346//122 347//123 345//121
f 354//130 355//131 353//129
f 355//131 358//134 357//133
f 358//134 343//119 357//133
f 343//119 382//158 357//133
f 364//140 1115//470 365//141
f 356//132 366//142 358//134
f 348//124 359//135 361//137
f 358//134 360//136 344//120
f 346//122 360//136 359//135
f 354//130 365//141 356//132
f 345//121 375//151 343//119
f 355//131 380//156 353//129
f 355//131 382//158 381//157
f 347//123 376//152 345//121
f 383//159 376//152 384//160
f 385//161 376//152 377//153
f 388//164 381//157 389//165
f 390//166 381//157 382//158
f 390//166 375//151 383//159
f 367//143 384//160 368//144
f 368//144 385//161 369//145
f 373//149 388//164 389//165
f 374//150 389//165 390//166
f 374//150 383//159 367//143
f 419//195 418//194 417//193
f 425//199 428//201 426//200
f 434//206 433//205 432//204
f 439//209 442//211 440//210
f 445//131 444//134 443//212
f 447//129 446//132 445//131
f 455//121 454//124 453//123
f 455//121 458//120 456//122
f 443//212 458//120 457//213
f 482//151 443//212 457//213
f 460//142 1124//465 466//136
f 466//136 456//122 458//120
f 448//130 459//141 446//132
f 460//142 458//120 444//134
f 446//132 460//142 444//134
f 465//135 454//124 456//122
f 475//158 445//131 443//212
f 480//153 455//121 453//123
f 455//121 482//151 457//213
f 476//157 447//129 445//131
f 476//157 483//166 484//165
f 485//164 476//157 484//165
f 481//152 488//215 489//160
f 490//159 481//152 489//160
f 475//158 490//159 483//166
f 484//165 467//150 468//214
f 485//164 468//214 469//148
f 489//160 472//145 473//144
f 474//143 489//160 473//144
f 483//166 474//143 467//150
f 518//218 519//206 517//217
f 525//220 528//201 527//201
f 533//224 534//195 532//223
f 539//226 542//211 541//211
f 1115//470 1113//468 1111//466
f 1121//467 1123//464 1118//472
f 459//141 1118//472 460//142
f 365//141 1116//471 366//142
f 461//140 1117//470 459//141
f 366//142 1110//465 360//136
f 461//140 1120//468 1119//469
f 359//135 1110//465 1109//464
f 462//139 1121//467 1120//468
f 359//135 1111//466 361//137
f 464//137 1121//467 463//138
f 361//137 1112//467 362//138
f 464//137 1123//464 1122//466
f 362//138 1113//468 363//139
f 465//135 1124//465 1123//464
f 364//140 1113//468 1114//469
f 344//120 346//122 345//121
f 346//122 348//124 347//123
f 354//130 356//132 355//131
f 355//131 356//132 358//134
f 358//134 344//120 343//119
f 343//119 375//151 382//158
f 364//140 1114//469 1115//470
f 356//132 365//141 366//142
f 348//124 346//122 359//135
f 358//134 366//142 360//136
f 346//122 344//120 360//136
f 354//130 364//140 365//141
f 345//121 376//152 375//151
f 355//131 381//157 380//156
f 355//131 357//133 382//158
f 347//123 377//153 376//152
f 383//159 375//151 376//152
f 385//161 384//160 376//152
f 388//164 380//156 381//157
f 390//166 389//165 381//157
f 390//166 382//158 375//151
f 367//143 383//159 384//160
f 368//144 384//160 385//161
f 373//149 372//148 388//164
f 374//150 373//149 389//165
f 374//150 390//166 383//159
f 419//195 420//195 418//194
f 425//199 427//201 428//201
f 434//206 435//206 433//205
f 439//209 441//211 442//211
f 445//131 446//132 444//134
f 447//129 448//130 446//132
f 455//121 456//122 454//124
f 455//121 457//213 458//120
f 443//212 444//134 458//120
f 482//151 475//158 443//212
f 460//142 1118//472 1124//465
f 466//136 465//135 456//122
f 448//130 461//140 459//141
f 460//142 466//136 458//120
f 446//132 459//141 460//142
f 465//135 464//137 454//124
f 475//158 476//157 445//131
f 480//153 481//152 455//121
f 455//121 481//152 482//151
f 476//157 477//156 447//129
f 476//157 475//158 483//166
f 485//164 477//156 476//157
f 481//152 480//153 488//215
f 490//159 482//151 481//152
f 475//158 482//151 490//159
f 484//165 483//166 467//150
f 485//164 484//165 468//214
f 489//160 488//215 472//145
f 474//143 490//159 489//160
f 483//166 490//159 474//143
f 518//218 520//206 519//206
f 525//220 526//221 528//201
f 533//224 535//195 534//195
f 539//226 540//227 542//211
f 1111//466 1109//464 1110//465
f 1110//465 1116//471 1115//470
f 1115//470 1114//469 1113//468
f 1113//468 1112//467 1111//466
f 1111//466 1110//465 1115//470
f 1118//472 1117//470 1119//469
f 1119//469 1120//468 1121//467
f 1121//467 1122//466 1123//464
f 1123//464 1124//465 1118//472
f 1118//472 1119//469 1121//467
f 459//141 1117//470 1118//472
f 365//141 1115//470 1116//471
f 461//140 1119//469 1117//470
f 366//142 1116//471 1110//465
f 461//140 462//139 1120//468
f 359//135 360//136 1110//465
f 462//139 463//138 1121//467
f 359//135 1109//464 1111//466
f 464//137 1122//466 1121//467
f 361//137 1111//466 1112//467
f 464//137 465//135 1123//464
f 362//138 1112//467 1113//468
f 465//135 466//136 1124//465
f 364//140 363//139 1113//468
usemtl wint.000
f 64//64 18//18 62//62
f 28//28 30//30 26//26
f 32//32 34//34 30//30
f 36//36 38//38 34//34
f 40//40 42//42 38//38
f 44//44 46//46 42//42
f 48//48 50//50 46//46
f 52//52 54//54 50//50
f 54//54 60//60 58//58
f 60//60 62//62 58//58
f 24//24 26//26 22//22
f 77//29 93//45 109//61
f 59//59 43//43 27//27
f 20//20 22//22 18//18
f 112//64 66//18 110//62
f 76//28 78//30 74//26
f 80//32 82//34 78//30
f 84//36 86//38 82//34
f 88//40 90//42 86//38
f 92//44 94//46 90//42
f 96//48 98//50 94//46
f 100//52 102//54 98//50
f 104//65 106//58 102//54
f 108//60 110//62 106//58
f 72//24 74//26 70//22
f 107//59 91//43 75//27
f 68//20 70//22 66//18
f 22//22 17//17 18//18
f 24//24 19//19 23//23
f 22//22 25//25 21//21
f 24//24 27//27 28//28
f 26//26 29//29 25//25
f 28//28 31//31 32//32
f 34//34 29//29 30//30
f 32//32 35//35 36//36
f 34//34 37//37 33//33
f 36//36 39//39 40//40
f 42//42 37//37 38//38
f 40//40 43//43 44//44
f 42//42 45//45 41//41
f 48//48 43//43 47//47
f 46//46 49//49 45//45
f 48//48 51//51 52//52
f 50//50 53//53 49//49
f 52//52 55//55 56//56
f 58//58 53//53 54//54
f 60//60 55//55 59//59
f 62//62 57//57 58//58
f 64//64 59//59 63//63
f 18//18 61//61 62//62
f 20//20 63//63 19//19
f 70//22 65//17 66//18
f 72//24 67//19 71//23
f 70//22 73//25 69//21
f 76//28 71//23 75//27
f 74//26 77//29 73//25
f 76//28 79//31 80//32
f 78//30 81//33 77//29
f 80//32 83//35 84//36
f 82//34 85//37 81//33
f 84//36 87//39 88//40
f 86//38 89//41 85//37
f 88//40 91//43 92//44
f 94//46 89//41 90//42
f 92//44 95//47 96//48
f 94//46 97//49 93//45
f 96//48 99//51 100//52
f 98//50 101//53 97//49
f 100//52 103//55 104//65
f 106//58 101//53 102//54
f 108//60 103//55 107//59
f 110//62 105//57 106//58
f 112//64 107//59 111//63
f 66//18 109//61 110//62
f 68//20 111//63 67//19
f 29//29 45//45 61//61
f 130//20 176//62 174//64
f 142//32 140//26 138//28
f 146//36 144//30 142//32
f 150//40 148//34 146//36
f 154//44 152//38 150//40
f 158//48 156//42 154//44
f 162//52 160//46 158//48
f 166//65 164//50 162//52
f 166//65 172//58 168//54
f 174//64 172//58 170//60
f 138//28 136//22 134//24
f 213//90 197//39 181//76
f 147//83 163//89 131//75
f 134//24 132//18 130//20
f 178//20 224//62 222//64
f 190//32 188//26 186//28
f 194//36 192//30 190//32
f 198//40 196//34 194//36
f 202//44 200//38 198//40
f 206//48 204//42 202//44
f 210//52 208//46 206//48
f 214//65 212//50 210//52
f 218//60 216//54 214//65
f 222//64 220//58 218//60
f 186//28 184//22 182//24
f 195//83 211//89 179//75
f 182//24 180//18 178//20
f 129//74 134//24 130//20
f 136//22 131//75 132//18
f 134//24 137//78 138//28
f 140//26 135//77 136//22
f 138//28 141//80 142//32
f 143//81 140//26 144//30
f 141//80 146//36 142//32
f 148//34 143//81 144//30
f 146//36 149//39 150//40
f 151//84 148//34 152//38
f 150//40 153//85 154//44
f 155//86 152//38 156//42
f 153//85 158//48 154//44
f 159//45 156//42 160//46
f 158//48 161//88 162//52
f 163//89 160//46 164//50
f 162//52 165//90 166//65
f 167//91 164//50 168//54
f 166//65 169//92 170//60
f 171//93 168//54 172//58
f 169//92 174//64 170//60
f 175//95 172//58 176//62
f 173//94 130//20 174//64
f 132//18 175//95 176//62
f 177//74 182//24 178//20
f 184//22 179//75 180//18
f 182//24 185//78 186//28
f 187//79 184//22 188//26
f 186//28 189//80 190//32
f 191//81 188//26 192//30
f 189//80 194//36 190//32
f 195//83 192//30 196//34
f 194//36 197//39 198//40
f 199//84 196//34 200//38
f 198//40 201//85 202//44
f 203//86 200//38 204//42
f 201//85 206//48 202//44
f 207//45 204//42 208//46
f 206//48 209//88 210//52
f 211//89 208//46 212//50
f 210//52 213//90 214//65
f 215//91 212//50 216//54
f 214//65 217//92 218//60
f 219//93 216//54 220//58
f 217//92 222//64 218//60
f 223//95 220//58 224//62
f 221//94 178//20 222//64
f 180//18 223//95 224//62
f 165//90 149//39 133//76
f 272//64 226//18 270//62
f 236//28 238//30 234//26
f 240//32 242//34 238//30
f 244//36 246//38 242//34
f 248//40 250//42 246//38
f 252//44 254//46 250//42
f 256//48 258//50 254//46
f 260//52 262//54 258//50
f 262//54 268//60 266//58
f 268//60 270//62 266//58
f 232//24 234//26 230//22
f 285//29 301//45 317//61
f 267//59 251//43 235//27
f 228//20 230//22 226//18
f 320//64 274//18 318//62
f 284//28 286//30 282//26
f 288//32 290//34 286//30
f 292//36 294//38 290//34
f 296//40 298//42 294//38
f 300//44 302//46 298//42
f 304//48 306//50 302//46
f 308//52 310//54 306//50
f 312//65 314//58 310//54
f 316//60 318//62 314//58
f 280//24 282//26 278//22
f 315//59 299//43 283//27
f 276//20 278//22 274//18
f 226//18 229//21 225//17
f 228//20 231//23 232//24
f 230//22 233//25 229//21
f 236//28 231//23 235//27
f 234//26 237//29 233//25
f 236//28 239//31 240//32
f 242//34 237//29 238//30
f 244//36 239//31 243//35
f 246//38 241//33 242//34
f 248//40 243//35 247//96
f 250//42 245//37 246//38
f 252//44 247//96 251//43
f 254//46 249//41 250//42
f 252//44 255//47 256//48
f 258//50 253//45 254//46
f 260//52 255//47 259//51
f 262//54 257//49 258//50
f 264//65 259//51 263//55
f 266//58 261//53 262//54
f 264//65 267//59 268//60
f 270//62 265//57 266//58
f 268//60 271//63 272//64
f 270//62 225//17 269//61
f 228//20 271//63 227//19
f 274//18 277//21 273//17
f 276//20 279//23 280//24
f 282//26 277//21 278//22
f 284//28 279//23 283//27
f 282//26 285//29 281//25
f 284//28 287//31 288//32
f 290//34 285//29 286//30
f 288//32 291//35 292//36
f 290//34 293//37 289//33
f 296//40 291//35 295//96
f 298//42 293//37 294//38
f 300//44 295//96 299//43
f 302//46 297//41 298//42
f 304//48 299//43 303//47
f 302//46 305//49 301//45
f 304//48 307//51 308//52
f 306//50 309//53 305//49
f 312//65 307//51 311//55
f 314//58 309//53 310//54
f 316//60 311//55 315//59
f 318//62 313//57 314//58
f 320//64 315//59 319//63
f 274//18 317//61 318//62
f 320//64 275//19 276//20
f 237//29 253//45 269//61
f 370//146 372//148 374//150
f 417//193 416//192 415//191
f 422//196 415//191 416//192
f 425//199 424//198 423//197
f 421//196 423//197 424//198
f 432//204 431//203 430//202
f 429//196 430//202 431//203
f 439//209 438//208 437//207
f 436//196 437//207 438//208
f 472//145 470//147 468//214
f 516//216 517//217 515//191
f 515//191 522//196 516//216
f 524//219 525//220 523//207
f 523//207 521//196 524//219
f 531//222 532//223 530//202
f 530//202 529//196 531//222
f 538//225 539//226 537//197
f 537//197 536//196 538//225
f 422//196 429//196 421//196
f 529//196 522//196 521//196
f 608//290 609//291 607//289
f 625//307 608//290 607//289
f 607//289 636//318 625//307
f 607//289 628//310 627//309
f 64//64 20//20 18//18
f 28//28 32//32 30//30
f 32//32 36//36 34//34
f 36//36 40//40 38//38
f 40//40 44//44 42//42
f 44//44 48//48 46//46
f 48//48 52//52 50//50
f 52//52 56//56 54//54
f 54//54 56//56 60//60
f 60//60 64//64 62//62
f 24//24 28//28 26//26
f 109//61 65//17 69//21
f 69//21 73//25 77//29
f 77//29 81//33 85//37
f 85//37 89//41 93//45
f 93//45 97//49 101//53
f 101//53 105//57 109//61
f 109//61 69//21 77//29
f 77//29 85//37 93//45
f 93//45 101//53 109//61
f 27//27 23//23 19//19
f 19//19 63//63 59//59
f 59//59 55//55 51//51
f 51//51 47//47 43//43
f 43//43 39//39 35//35
f 35//35 31//31 27//27
f 27//27 19//19 59//59
f 59//59 51//51 43//43
f 43//43 35//35 27//27
f 20//20 24//24 22//22
f 112//64 68//20 66//18
f 76//28 80//32 78//30
f 80//32 84//36 82//34
f 84//36 88//40 86//38
f 88//40 92//44 90//42
f 92//44 96//48 94//46
f 96//48 100//52 98//50
f 100//52 104//65 102//54
f 104//65 108//60 106//58
f 108//60 112//64 110//62
f 72//24 76//28 74//26
f 75//27 71//23 67//19
f 67//19 111//63 107//59
f 107//59 103//55 99//51
f 99//51 95//47 91//43
f 91//43 87//39 83//35
f 83//35 79//31 75//27
f 75//27 67//19 107//59
f 107//59 99//51 91//43
f 91//43 83//35 75//27
f 68//20 72//24 70//22
f 22//22 21//21 17//17
f 24//24 20//20 19//19
f 22//22 26//26 25//25
f 24//24 23//23 27//27
f 26//26 30//30 29//29
f 28//28 27//27 31//31
f 34//34 33//33 29//29
f 32//32 31//31 35//35
f 34//34 38//38 37//37
f 36//36 35//35 39//39
f 42//42 41//41 37//37
f 40//40 39//39 43//43
f 42//42 46//46 45//45
f 48//48 44//44 43//43
f 46//46 50//50 49//49
f 48//48 47//47 51//51
f 50//50 54//54 53//53
f 52//52 51//51 55//55
f 58//58 57//57 53//53
f 60//60 56//56 55//55
f 62//62 61//61 57//57
f 64//64 60//60 59//59
f 18//18 17//17 61//61
f 20//20 64//64 63//63
f 70//22 69//21 65//17
f 72//24 68//20 67//19
f 70//22 74//26 73//25
f 76//28 72//24 71//23
f 74//26 78//30 77//29
f 76//28 75//27 79//31
f 78//30 82//34 81//33
f 80//32 79//31 83//35
f 82//34 86//38 85//37
f 84//36 83//35 87//39
f 86//38 90//42 89//41
f 88//40 87//39 91//43
f 94//46 93//45 89//41
f 92//44 91//43 95//47
f 94//46 98//50 97//49
f 96//48 95//47 99//51
f 98//50 102//54 101//53
f 100//52 99//51 103//55
f 106//58 105//57 101//53
f 108//60 104//65 103//55
f 110//62 109//61 105//57
f 112//64 108//60 107//59
f 66//18 65//17 109//61
f 68//20 112//64 111//63
f 61//61 17//17 21//21
f 21//21 25//25 29//29
f 29//29 33//33 37//37
f 37//37 41//41 45//45
f 45//45 49//49 53//53
f 53//53 57//57 61//61
f 61//61 21//21 29//29
f 29//29 37//37 45//45
f 45//45 53//53 61//61
f 130//20 132//18 176//62
f 142//32 144//30 140//26
f 146//36 148//34 144//30
f 150//40 152//38 148//34
f 154//44 156//42 152//38
f 158//48 160//46 156//42
f 162//52 164//50 160//46
f 166//65 168//54 164//50
f 166//65 170//60 172//58
f 174//64 176//62 172//58
f 138//28 140//26 136//22
f 181//76 177//74 221//94
f 221//94 217//92 213//90
f 213//90 209//88 205//87
f 205//87 201//85 197//39
f 197//39 193//82 189//80
f 189//80 185//78 181//76
f 181//76 221//94 213//90
f 213//90 205//87 197//39
f 197//39 189//80 181//76
f 131//75 135//77 139//79
f 139//79 143//81 147//83
f 147//83 151//84 155//86
f 155//86 159//45 163//89
f 163//89 167//91 171//93
f 171//93 175//95 131//75
f 131//75 139//79 147//83
f 147//83 155//86 163//89
f 163//89 171//93 131//75
f 134//24 136//22 132//18
f 178//20 180//18 224//62
f 190//32 192//30 188//26
f 194//36 196//34 192//30
f 198//40 200//38 196//34
f 202//44 204//42 200//38
f 206//48 208//46 204//42
f 210//52 212//50 208//46
f 214//65 216//54 212//50
f 218//60 220//58 216//54
f 222//64 224//62 220//58
f 186//28 188//26 184//22
f 179//75 183//77 187//79
f 187//79 191//81 195//83
f 195//83 199//84 203//86
f 203//86 207//45 211//89
f 211//89 215//91 219//93
f 219//93 223//95 179//75
f 179//75 187//79 195//83
f 195//83 203//86 211//89
f 211//89 219//93 179//75
f 182//24 184//22 180//18
f 129//74 133//76 134//24
f 136//22 135//77 131//75
f 134//24 133//76 137//78
f 140//26 139//79 135//77
f 138//28 137//78 141//80
f 143//81 139//79 140//26
f 141//80 145//82 146//36
f 148//34 147//83 143//81
f 146//36 145//82 149//39
f 151//84 147//83 148//34
f 150//40 149//39 153//85
f 155//86 151//84 152//38
f 153//85 157//87 158//48
f 159//45 155//86 156//42
f 158//48 157//87 161//88
f 163//89 159//45 160//46
f 162//52 161//88 165//90
f 167//91 163//89 164//50
f 166//65 165//90 169//92
f 171//93 167//91 168//54
f 169//92 173//94 174//64
f 175//95 171//93 172//58
f 173//94 129//74 130//20
f 132//18 131//75 175//95
f 177//74 181//76 182//24
f 184//22 183//77 179//75
f 182//24 181//76 185//78
f 187//79 183//77 184//22
f 186//28 185//78 189//80
f 191//81 187//79 188//26
f 189//80 193//82 194//36
f 195//83 191//81 192//30
f 194//36 193//82 197//39
f 199//84 195//83 196//34
f 198//40 197//39 201//85
f 203//86 199//84 200//38
f 201//85 205//87 206//48
f 207//45 203//86 204//42
f 206//48 205//87 209//88
f 211//89 207//45 208//46
f 210//52 209//88 213//90
f 215//91 211//89 212//50
f 214//65 213//90 217//92
f 219//93 215//91 216//54
f 217//92 221//94 222//64
f 223//95 219//93 220//58
f 221//94 177//74 178//20
f 180//18 179//75 223//95
f 133//76 129//74 173//94
f 173//94 169//92 165//90
f 165//90 161//88 157//87
f 157//87 153//85 149//39
f 149//39 145//82 141//80
f 141//80 137//78 133//76
f 133//76 173//94 165//90
f 165//90 157//87 149//39
f 149//39 141//80 133//76
f 272//64 228//20 226//18
f 236//28 240//32 238//30
f 240//32 244//36 242//34
f 244//36 248//40 246//38
f 248//40 252//44 250//42
f 252//44 256//48 254//46
f 256//48 260//52 258//50
f 260//52 264//65 262//54
f 262//54 264//65 268//60
f 268//60 272//64 270//62
f 232//24 236//28 234//26
f 317//61 273//17 277//21
f 277//21 281//25 285//29
f 285//29 289//33 293//37
f 293//37 297//41 301//45
f 301//45 305//49 309//53
f 309//53 313//57 317//61
f 317//61 277//21 285//29
f 285//29 293//37 301//45
f 301//45 309//53 317//61
f 235//27 231//23 227//19
f 227//19 271//63 267//59
f 267//59 263//55 259//51
f 259//51 255//47 251//43
f 251//43 247//96 243//35
f 243//35 239//31 235//27
f 235//27 227//19 267//59
f 267//59 259//51 251//43
f 251//43 243//35 235//27
f 228//20 232//24 230//22
f 320//64 276//20 274//18
f 284//28 288//32 286//30
f 288//32 292//36 290//34
f 292//36 296//40 294//38
f 296//40 300//44 298//42
f 300//44 304//48 302//46
f 304//48 308//52 306//50
f 308//52 312//65 310//54
f 312//65 316//60 314//58
f 316//60 320//64 318//62
f 280//24 284//28 282//26
f 283//27 279//23 275//19
f 275//19 319//63 315//59
f 315//59 311//55 307//51
f 307//51 303//47 299//43
f 299//43 295//96 291//35
f 291//35 287//31 283//27
f 283//27 275//19 315//59
f 315//59 307//51 299//43
f 299//43 291//35 283//27
f 276//20 280//24 278//22
f 226//18 230//22 229//21
f 228//20 227//19 231//23
f 230//22 234//26 233//25
f 236//28 232//24 231//23
f 234//26 238//30 237//29
f 236//28 235//27 239//31
f 242//34 241//33 237//29
f 244//36 240//32 239//31
f 246//38 245//37 241//33
f 248//40 244//36 243//35
f 250//42 249//41 245//37
f 252//44 248//40 247//96
f 254//46 253//45 249//41
f 252//44 251//43 255//47
f 258//50 257//49 253//45
f 260//52 256//48 255//47
f 262//54 261//53 257//49
f 264//65 260//52 259//51
f 266//58 265//57 261//53
f 264//65 263//55 267//59
f 270//62 269//61 265//57
f 268//60 267//59 271//63
f 270//62 226//18 225//17
f 228//20 272//64 271//63
f 274//18 278//22 277//21
f 276//20 275//19 279//23
f 282//26 281//25 277//21
f 284//28 280//24 279//23
f 282//26 286//30 285//29
f 284//28 283//27 287//31
f 290//34 289//33 285//29
f 288//32 287//31 291//35
f 290//34 294//38 293//37
f 296//40 292//36 291//35
f 298//42 297//41 293//37
f 300//44 296//40 295//96
f 302//46 301//45 297//41
f 304//48 300//44 299//43
f 302//46 306//50 305//49
f 304//48 303//47 307//51
f 306//50 310//54 309//53
f 312//65 308//52 307//51
f 314//58 313//57 309//53
f 316//60 312//65 311//55
f 318//62 317//61 313//57
f 320//64 316//60 315//59
f 274//18 273//17 317//61
f 320//64 319//63 275//19
f 269//61 225//17 229//21
f 229//21 233//25 237//29
f 237//29 241//33 245//37
f 245//37 249//41 253//45
f 253//45 257//49 261//53
f 261//53 265//57 269//61
f 269//61 229//21 237//29
f 237//29 245//37 253//45
f 253//45 261//53 269//61
f 374//150 367//143 368//144
f 368//144 369//145 370//146
f 370//146 371//147 372//148
f 372//148 373//149 374//150
f 374//150 368//144 370//146
f 417//193 418//194 416//192
f 422//196 421//196 415//191
f 425//199 426//200 424//198
f 421//196 429//196 423//197
f 432//204 433//205 431//203
f 429//196 436//196 430//202
f 439//209 440//210 438//208
f 436//196 422//196 437//207
f 468//214 467//150 474//143
f 474//143 473//144 472//145
f 472//145 471//146 470//147
f 470//147 469//148 468//214
f 468//214 474//143 472//145
f 516//216 518//218 517//217
f 515//191 521//196 522//196
f 524//219 526//221 525//220
f 523//207 529//196 521//196
f 531//222 533//224 532//223
f 530//202 536//196 529//196
f 538//225 540//227 539//226
f 537//197 522//196 536//196
f 422//196 436//196 429//196
f 529//196 536//196 522//196
f 608//290 610//292 609//291
f 625//307 626//308 608//290
f 607//289 627//309 636//318
f 607//289 609//291 628//310
usemtl tail.000
f 551//236 554//13 553//14
f 555//72 557//239 556//238
f 552//237 558//240 554//13
f 555//72 551//236 553//14
f 554//13 555//72 553//14
f 551//236 557//239 552//237
f 551//236 552//237 554//13
f 555//72 558//240 557//239
f 552//237 557//239 558//240
f 555//72 556//238 551//236
f 554//13 558//240 555//72
f 551//236 556//238 557//239
usemtl wing.000
f 560//242 561//243 559//241
f 574//256 564//246 563//245
f 562//244 593//275 565//247
f 561//243 567//249 559//241
f 574//256 570//252 569//251
f 568//250 584//266 591//273
f 572//254 560//242 559//241
f 574//256 577//259 575//257
f 573//255 592//274 586//268
f 567//249 572//254 559//241
f 574//256 580//262 576//258
f 579//261 583//265 581//263
f 562//244 572//254 561//243
f 564//246 575//257 577//259
f 563//245 577//259 576//258
f 566//248 565//247 578//260
f 566//248 573//255 562//244
f 561//243 579//261 568//250
f 563//245 580//262 570//252
f 569//251 570//252 580//262
f 581//263 571//253 582//264
f 571//253 579//261 582//264
f 587//269 586//268 588//270
f 598//280 605//287 604//286
f 606//288 604//286 605//287
f 593//275 586//268 592//274
f 598//280 606//288 599//281
f 602//284 596//278 597//279
f 605//287 599//281 606//288
f 597//279 601//283 602//284
f 599//281 600//282 598//280
f 597//279 596//278 595//277
f 601//283 596//278 603//285
f 602//284 601//283 603//285
f 594//276 593//275 592//274
f 590//272 591//273 589//271
f 589//271 584//266 583//265
f 585//267 583//265 584//266
f 560//242 562//244 561//243
f 574//256 575//257 564//246
f 562//244 560//242 587//269
f 562//244 587//269 588//270
f 565//247 566//248 562//244
f 593//275 594//276 565//247
f 562//244 588//270 593//275
f 561//243 568//250 567//249
f 574//256 563//245 570//252
f 568//250 571//253 581//263
f 581//263 585//267 584//266
f 591//273 590//272 567//249
f 568//250 581//263 584//266
f 591//273 567//249 568//250
f 572//254 573//255 560//242
f 574//256 576//258 577//259
f 573//255 578//260 565//247
f 565//247 594//276 592//274
f 586//268 587//269 560//242
f 573//255 565//247 592//274
f 586//268 560//242 573//255
f 567//249 579//261 572//254
f 574//256 569//251 580//262
f 579//261 567//249 590//272
f 579//261 590//272 589//271
f 581//263 582//264 579//261
f 583//265 585//267 581//263
f 579//261 589//271 583//265
f 562//244 573//255 572//254
f 563//245 564//246 577//259
f 566//248 578//260 573//255
f 561//243 572//254 579//261
f 563//245 576//258 580//262
f 571//253 568//250 579//261
f 598//280 600//282 605//287
f 593//275 588//270 586//268
f 598//280 604//286 606//288
f 602//284 603//285 596//278
f 605//287 600//282 599//281
f 597//279 595//277 601//283
f 601//283 595//277 596//278
f 589//271 591//273 584//266
usemtl fus.000
f 348//124 349//125 347//123
f 350//126 351//127 349//125
f 352//128 353//129 351//127
f 350//126 363//139 352//128
f 352//128 364//140 354//130
f 350//126 361//137 362//138
f 347//123 378//154 377//153
f 351//127 378//154 349//125
f 353//129 379//155 351//127
f 386//162 377//153 378//154
f 386//162 379//155 387//163
f 387//163 380//156 388//164
f 370//146 385//161 386//162
f 370//146 387//163 371//147
f 371//147 388//164 372//148
f 449//127 448//130 447//129
f 451//125 450//128 449//127
f 453//123 452//126 451//125
f 463//138 450//128 452//126
f 464//137 452//126 454//124
f 450//128 461//140 448//130
f 447//129 478//155 449//127
f 478//155 451//125 449//127
f 479//154 453//123 451//125
f 486//163 477//156 485//164
f 479//154 486//163 487//162
f 480//153 487//162 488//215
f 470//147 485//164 469//148
f 487//162 470//147 471//146
f 488//215 471//146 472//145
f 544//229 547//232 545//230
f 548//233 550//235 544//229
f 543//228 545//230 548//233
f 546//231 544//229 549//234
f 547//232 548//233 545//230
f 547//232 549//234 550//235
f 611//293 614//296 613//295
f 622//304 623//305 621//303
f 613//295 629//311 611//293
f 621//303 635//317 634//316
f 656//338 667//349 668//350
f 612//294 651//333 614//296
f 650//332 663//345 651//333
f 624//306 655//337 656//338
f 663//345 698//380 677//359
f 667//349 673//355 699//381
f 678//360 689//371 677//359
f 681//363 685//367 693//375
f 348//124 350//126 349//125
f 350//126 352//128 351//127
f 352//128 354//130 353//129
f 350//126 362//138 363//139
f 352//128 363//139 364//140
f 350//126 348//124 361//137
f 347//123 349//125 378//154
f 351//127 379//155 378//154
f 353//129 380//156 379//155
f 386//162 385//161 377//153
f 386//162 378//154 379//155
f 387//163 379//155 380//156
f 370//146 369//145 385//161
f 370//146 386//162 387//163
f 371//147 387//163 388//164
f 449//127 450//128 448//130
f 451//125 452//126 450//128
f 453//123 454//124 452//126
f 463//138 462//139 450//128
f 464//137 463//138 452//126
f 450//128 462//139 461//140
f 447//129 477//156 478//155
f 478//155 479//154 451//125
f 479//154 480//153 453//123
f 486//163 478//155 477//156
f 479//154 478//155 486//163
f 480//153 479//154 487//162
f 470//147 486//163 485//164
f 487//162 486//163 470//147
f 488//215 487//162 471//146
f 545//230 543//228 544//229
f 544//229 546//231 547//232
f 544//229 543//228 548//233
f 550//235 549//234 544//229
f 547//232 550//235 548//233
f 547//232 546//231 549//234
f 611//293 612//294 614//296
f 622//304 624//306 623//305
f 613//295 630//312 629//311
f 621//303 623//305 635//317
f 656//338 655//337 667//349
f 612//294 650//332 651//333
f 650//332 662//344 663//345
f 624//306 622//304 655//337
f 663//345 662//344 740//394
f 663//345 740//394 738//378
f 735//393 678//360 677//359
f 736//378 735//393 677//359
f 663//345 738//378 696//378
f 698//380 736//378 677//359
f 663//345 696//378 698//380
f 712//387 668//350 667//349
f 673//355 681//363 732//390
f 673//355 732//390 737//379
f 739//379 712//387 667//349
f 697//379 739//379 667//349
f 673//355 737//379 699//381
f 699//381 697//379 667//349
f 678//360 690//372 689//371
f 681//363 673//355 685//367
usemtl fus.010
f 610//292 611//293 609//291
f 659//341 682//364 716//385
f 623//305 626//308 625//307
f 631//313 640//322 630//312
f 625//307 635//317 623//305
f 609//291 629//311 628//310
f 640//322 644//326 646//328
f 627//309 646//328 636//318
f 629//311 638//320 628//310
f 634//316 645//327 644//326
f 632//314 641//323 631//313
f 632//314 643//325 642//324
f 630//312 639//321 629//311
f 635//317 646//328 645//327
f 627//309 638//320 637//319
f 633//315 644//326 643//325
f 647//329 659//341 648//330
f 657//339 624//306 656//338
f 612//294 649//331 650//332
f 797//396 764//396 793//396
f 675//357 688//370 687//369
f 695//377 608//290 881//420
f 829//408 837//408 847//408
f 658//340 826//407 850//407
f 658//340 660//342 647//329
f 815//395 756//395 662//344
f 695//377 890//429 608//290
f 752//382 704//382 708//382
f 660//342 675//357 679//361
f 660//342 682//364 659//341
f 721//386 717//386 675//357
f 662//344 701//383 740//394
f 688//370 683//365 692//374
f 682//364 692//374 680//362
f 676//358 693//375 688//370
f 679//361 694//376 682//364
f 679//361 687//369 691//373
f 680//362 690//372 678//360
f 872//416 649//331 612//294
f 648//330 882//421 695//377
f 695//377 884//423 658//340
f 624//306 870//414 886//425
f 775//395 798//399 825//395
f 876//413 869//413 648//330
f 745//396 757//397 816//396
f 875//412 657//339 658//340
f 733//391 681//363 676//358
f 700//382 726//382 668//350
f 734//392 678//360 735//393
f 709//384 705//384 753//384
f 610//292 612//294 611//293
f 715//389 661//343 659//341
f 682//364 680//362 734//392
f 682//364 734//392 718//385
f 710//385 715//389 659//341
f 720//385 710//385 659//341
f 682//364 718//385 716//385
f 716//385 720//385 659//341
f 623//305 624//306 626//308
f 631//313 641//323 640//322
f 625//307 636//318 635//317
f 609//291 611//293 629//311
f 646//328 637//319 638//320
f 638//320 639//321 640//322
f 640//322 641//323 642//324
f 642//324 643//325 644//326
f 644//326 645//327 646//328
f 646//328 638//320 640//322
f 640//322 642//324 644//326
f 627//309 637//319 646//328
f 629//311 639//321 638//320
f 634//316 635//317 645//327
f 632//314 642//324 641//323
f 632//314 633//315 643//325
f 630//312 640//322 639//321
f 635//317 636//318 646//328
f 627//309 628//310 638//320
f 633//315 634//316 644//326
f 647//329 660//342 659//341
f 866//411 657//339 656//338
f 656//338 819//396 817//396
f 656//338 817//396 803//396
f 858//410 866//411 656//338
f 862//404 860//404 852//396
f 852//396 858//410 656//338
f 852//396 656//338 803//396
f 848//396 862//404 852//396
f 832//404 864//404 838//396
f 848//396 852//396 803//396
f 805//406 832//404 838//396
f 838//396 848//396 803//396
f 838//396 803//396 824//396
f 793//396 805//406 838//396
f 669//351 794//404 793//396
f 767//396 771//401 669//351
f 754//396 751//396 767//396
f 754//396 767//396 669//351
f 793//396 838//396 824//396
f 754//396 669//351 793//396
f 774//396 754//396 793//396
f 761//396 779//396 763//396
f 777//396 761//396 763//396
f 801//396 800//396 789//396
f 801//396 789//396 787//396
f 824//396 801//396 787//396
f 824//396 787//396 797//396
f 777//396 763//396 774//396
f 764//396 777//396 774//396
f 793//396 824//396 797//396
f 764//396 774//396 793//396
f 675//357 676//358 688//370
f 608//290 626//308 889//428
f 608//290 889//428 891//430
f 881//420 883//422 695//377
f 608//290 891//430 881//420
f 648//330 659//341 661//343
f 661//343 795//405 814//408
f 661//343 814//408 812//408
f 857//408 867//405 649//331
f 855//408 857//408 649//331
f 661//343 812//408 810//408
f 661//343 810//408 808//408
f 855//408 649//331 648//330
f 831//408 855//408 648//330
f 823//408 833//405 865//405
f 823//408 865//405 843//408
f 821//408 823//408 843//408
f 821//408 843//408 841//408
f 808//408 821//408 841//408
f 808//408 841//408 851//408
f 835//408 831//408 648//330
f 661//343 808//408 851//408
f 648//330 661//343 851//408
f 648//330 851//408 827//408
f 835//408 648//330 827//408
f 845//408 835//408 827//408
f 845//408 827//408 829//408
f 863//405 861//405 847//408
f 847//408 845//408 829//408
f 837//408 863//405 847//408
f 657//339 866//411 856//407
f 657//339 856//407 854//407
f 669//351 670//352 658//340
f 813//407 794//404 669//351
f 811//407 813//407 669//351
f 658//340 657//339 854//407
f 658//340 854//407 830//407
f 809//407 811//407 669//351
f 807//407 809//407 669//351
f 658//340 830//407 834//407
f 864//404 832//404 822//407
f 842//407 864//404 822//407
f 842//407 822//407 820//407
f 840//407 842//407 820//407
f 840//407 820//407 807//407
f 850//407 840//407 807//407
f 846//407 860//404 862//404
f 846//407 862//404 836//407
f 844//407 846//407 836//407
f 844//407 836//407 828//407
f 834//407 844//407 828//407
f 834//407 828//407 826//407
f 850//407 807//407 669//351
f 658//340 834//407 826//407
f 850//407 669//351 658//340
f 658//340 670//352 660//342
f 650//332 791//395 790//395
f 650//332 790//395 784//395
f 782//395 780//402 662//344
f 748//395 746//395 782//395
f 748//395 782//395 662//344
f 662//344 650//332 784//395
f 662//344 784//395 815//395
f 744//395 748//395 662//344
f 776//395 762//395 778//395
f 776//395 778//395 744//395
f 760//395 776//395 744//395
f 799//395 802//395 786//395
f 799//395 786//395 788//395
f 758//395 760//395 744//395
f 799//395 788//395 756//395
f 758//395 744//395 662//344
f 815//395 799//395 756//395
f 756//395 758//395 662//344
f 695//377 882//421 880//419
f 890//429 888//427 610//292
f 695//377 880//419 890//429
f 890//429 610//292 608//290
f 669//351 771//401 772//382
f 669//351 772//382 752//382
f 713//382 714//388 669//351
f 728//382 724//382 713//382
f 728//382 713//382 669//351
f 730//382 728//382 669//351
f 742//382 706//382 708//382
f 708//382 730//382 669//351
f 708//382 669//351 752//382
f 704//382 742//382 708//382
f 660//342 670//352 675//357
f 660//342 679//361 682//364
f 675//357 670//352 669//351
f 669//351 714//388 711//386
f 669//351 711//386 721//386
f 733//391 676//358 675//357
f 719//386 733//391 675//357
f 675//357 669//351 721//386
f 717//386 719//386 675//357
f 662//344 780//402 769//384
f 703//384 743//384 707//384
f 662//344 769//384 703//384
f 725//384 741//384 740//394
f 723//384 725//384 740//394
f 662//344 703//384 707//384
f 662//344 707//384 727//384
f 701//383 723//384 740//394
f 662//344 727//384 701//383
f 692//374 694//376 691//373
f 691//373 687//369 688//370
f 688//370 693//375 685//367
f 685//367 686//368 683//365
f 683//365 684//366 689//371
f 689//371 690//372 692//374
f 692//374 691//373 688//370
f 688//370 685//367 683//365
f 683//365 689//371 692//374
f 682//364 694//376 692//374
f 676//358 681//363 693//375
f 679//361 691//373 694//376
f 679//361 675//357 687//369
f 680//362 692//374 690//372
f 612//294 610//292 888//427
f 612//294 888//427 887//426
f 872//416 877//418 649//331
f 612//294 887//426 872//416
f 695//377 647//329 648//330
f 648//330 885//424 882//421
f 658//340 647//329 695//377
f 695//377 883//422 884//423
f 889//428 626//308 624//306
f 657//339 871//415 870//414
f 886//425 889//428 624//306
f 624//306 657//339 870//414
f 661//343 770//400 766//395
f 766//395 782//395 746//395
f 766//395 746//395 750//395
f 796//395 795//405 661//343
f 865//405 833//405 806//395
f 839//399 865//405 806//395
f 861//405 863//405 849//409
f 849//409 839//399 806//395
f 853//395 861//405 849//409
f 649//331 867//405 859//395
f 853//395 849//409 806//395
f 650//332 649//331 859//395
f 650//332 859//395 853//395
f 818//395 791//395 650//332
f 804//395 818//395 650//332
f 650//332 853//395 806//395
f 650//332 806//395 796//395
f 804//395 650//332 796//395
f 661//343 766//395 750//395
f 661//343 750//395 755//395
f 804//395 796//395 661//343
f 786//395 802//395 825//395
f 825//395 804//395 661//343
f 661//343 755//395 775//395
f 775//395 762//395 776//395
f 775//395 776//395 765//399
f 825//395 661//343 775//395
f 798//399 786//395 825//395
f 775//395 765//399 798//399
f 649//331 877//418 874//413
f 649//331 874//413 876//413
f 879//413 885//424 648//330
f 869//413 879//413 648//330
f 648//330 649//331 876//413
f 668//350 781//403 783//396
f 783//396 767//396 751//396
f 783//396 751//396 747//396
f 792//396 819//396 656//338
f 785//396 792//396 656//338
f 668//350 783//396 747//396
f 668//350 747//396 749//396
f 785//396 656//338 668//350
f 789//396 800//396 816//396
f 816//396 785//396 668//350
f 668//350 749//396 745//396
f 745//396 779//396 761//396
f 745//396 761//396 759//398
f 816//396 668//350 745//396
f 757//397 789//396 816//396
f 745//396 759//398 757//397
f 658//340 884//423 878//412
f 658//340 878//412 868//412
f 873//417 871//415 657//339
f 658//340 868//412 875//412
f 875//412 873//417 657//339
f 733//391 732//390 681//363
f 712//387 713//382 724//382
f 712//387 724//382 722//382
f 768//382 781//403 668//350
f 706//382 742//382 702//382
f 702//382 768//382 668//350
f 712//387 722//382 700//382
f 726//382 706//382 702//382
f 668//350 712//387 700//382
f 726//382 702//382 668//350
f 734//392 680//362 678//360
f 661//343 715//389 741//384
f 741//384 725//384 729//384
f 661//343 741//384 729//384
f 773//384 770//400 661//343
f 753//384 773//384 661//343
f 661//343 729//384 731//384
f 709//384 707//384 743//384
f 661//343 731//384 709//384
f 753//384 661//343 709//384
f 709//384 743//384 705//384
usemtl fus.1
f 613//295 616//298 615//297
f 615//297 618//300 617//299
f 618//300 619//301 617//299
f 620//302 621//303 619//301
f 617//299 631//313 615//297
f 615//297 630//312 613//295
f 619//301 634//316 633//315
f 617//299 633//315 632//314
f 653//335 666//348 654//336
f 620//302 653//335 654//336
f 652//334 614//296 651//333
f 666//348 671//353 674//356
f 616//298 653//335 618//300
f 655//337 666//348 667//349
f 651//333 664//346 652//334
f 622//304 654//336 655//337
f 652//334 665//347 653//335
f 663//345 672//354 664//346
f 667//349 674//356 673//355
f 664//346 671//353 665//347
f 672//354 683//365 671//353
f 677//359 684//366 672//354
f 673//355 686//368 685//367
f 674//356 683//365 686//368
f 918//378 919//378 1101//378
f 946//392 948//389 1094//384
f 941//391 1091//382 942//388
f 944//385 943//385 948//389
f 951//386 950//386 941//391
f 937//379 940//379 1104//379
f 613//295 614//296 616//298
f 615//297 616//298 618//300
f 618//300 620//302 619//301
f 620//302 622//304 621//303
f 617//299 632//314 631//313
f 615//297 631//313 630//312
f 619//301 621//303 634//316
f 617//299 619//301 633//315
f 653//335 665//347 666//348
f 620//302 618//300 653//335
f 652//334 616//298 614//296
f 666//348 665//347 671//353
f 616//298 652//334 653//335
f 655//337 654//336 666//348
f 651//333 663//345 664//346
f 622//304 620//302 654//336
f 652//334 664//346 665//347
f 663//345 677//359 672//354
f 667//349 666//348 674//356
f 664//346 672//354 671//353
f 672//354 684//366 683//365
f 677//359 689//371 684//366
f 673//355 674//356 686//368
f 674//356 671//353 683//365
f 1105//462 916//394 918//378
f 918//378 920//378 919//378
f 919//378 917//378 915//393
f 915//393 1099//462 1101//378
f 1103//378 1105//462 918//378
f 919//378 915//393 1101//378
f 1101//378 1103//378 918//378
f 916//394 1105//462 1089//384
f 916//394 1089//384 1096//384
f 1097//384 1099//462 915//393
f 1107//384 1097//384 915//393
f 948//389 916//394 1096//384
f 948//389 1096//384 1092//384
f 1107//384 915//393 946//392
f 948//389 1092//384 1094//384
f 1094//384 1107//384 946//392
f 926//390 1100//463 1098//382
f 926//390 1098//382 1108//382
f 1090//382 1106//463 927//387
f 1095//382 1090//382 927//387
f 941//391 926//390 1108//382
f 941//391 1108//382 1093//382
f 1095//382 927//387 942//388
f 941//391 1093//382 1091//382
f 1091//382 1095//382 942//388
f 948//389 946//392 944//385
f 944//385 945//385 943//385
f 943//385 947//385 948//389
f 941//391 942//388 951//386
f 951//386 952//386 950//386
f 950//386 949//386 941//391
f 1100//463 926//390 937//379
f 937//379 939//379 940//379
f 940//379 938//379 927//387
f 927//387 1106//463 1104//379
f 1102//379 1100//463 937//379
f 940//379 927//387 1104//379
f 1104//379 1102//379 937//379
usemtl Glass
f 989//452 991//413 993//413
f 983//450 987//412 985//412
f 981//448 983//450 893//432
f 1009//453 1016//454 1015//453
f 1018//454 1013//455 1017//453
f 1012//454 1019//455 1011//455
f 902//396 909//434 903//433
f 901//396 1024//396 1021//396
f 911//396 1027//396 894//396
f 905//396 1026//396 906//396
f 984//451 980//447 893//432
f 1038//408 1042//408 1049//457
f 1037//408 1043//408 1048//458
f 1044//408 1054//408 1052//457
f 975//442 974//441 892//431
f 974//441 989//452 892//431
f 954//384 959//384 958//384
f 965//384 969//384 964//384
f 924//382 922//382 903//433
f 936//382 932//382 928//382
f 972//439 970//438 892//431
f 1008//407 995//407 1011//455
f 997//407 1000//407 1017//453
f 996//407 994//407 1009//453
f 978//445 979//446 893//432
f 1068//395 953//435 957//436
f 1052//457 1076//395 1045//457
f 1077//461 1050//457 1048//458
f 1049//457 1075//460 1033//456
f 1081//395 1060//395 1063//395
f 1069//395 1073//395 1057//395
f 1066//395 1074//395 1067//395
f 1100//463 1104//379 1106//463
f 1108//382 1100//463 1090//382
f 1099//462 1103//378 1101//378
f 1107//384 1092//384 1089//384
f 973//440 892//431 989//452
f 989//452 990//413 991//413
f 991//413 992//413 993//413
f 993//413 973//440 989//452
f 984//451 893//432 983//450
f 983//450 988//417 987//412
f 987//412 986//412 985//412
f 985//412 984//451 983//450
f 893//432 979//446 981//448
f 981//448 982//449 983//450
f 1009//453 1010//454 1016//454
f 1018//454 1014//454 1013//455
f 1012//454 1020//454 1019//455
f 902//396 907//396 909//434
f 895//396 897//396 901//396
f 901//396 900//396 898//396
f 898//396 1025//396 1024//396
f 1024//396 1023//396 1021//396
f 1021//396 895//396 901//396
f 901//396 898//396 1024//396
f 894//396 896//396 899//396
f 899//396 913//396 911//396
f 911//396 908//396 1027//396
f 1027//396 1022//396 894//396
f 894//396 899//396 911//396
f 906//396 910//396 914//396
f 914//396 912//396 905//396
f 905//396 1028//396 1026//396
f 1026//396 904//396 906//396
f 906//396 914//396 905//396
f 1049//457 1033//456 1041//408
f 1041//408 1032//408 1038//408
f 1038//408 1035//408 1042//408
f 1042//408 1046//408 1049//457
f 1049//457 1041//408 1038//408
f 1048//458 1050//457 1040//408
f 1040//408 1039//408 1037//408
f 1037//408 1036//408 1043//408
f 1043//408 1047//408 1048//458
f 1048//458 1040//408 1037//408
f 1052//457 1045//457 1051//408
f 1051//408 1034//408 1044//408
f 1044//408 1055//408 1054//408
f 1054//408 1053//408 1052//457
f 1052//457 1051//408 1044//408
f 892//431 970//438 975//442
f 975//442 976//443 974//441
f 957//436 953//435 954//384
f 954//384 955//384 956//384
f 956//384 966//437 959//384
f 959//384 960//384 958//384
f 958//384 957//436 954//384
f 954//384 956//384 959//384
f 964//384 963//384 961//384
f 961//384 962//384 965//384
f 965//384 967//384 969//384
f 969//384 968//384 964//384
f 964//384 961//384 965//384
f 903//433 909//434 923//382
f 923//382 925//382 924//382
f 924//382 933//382 922//382
f 922//382 921//382 903//433
f 903//433 923//382 924//382
f 928//382 930//382 931//382
f 931//382 935//382 936//382
f 936//382 934//382 932//382
f 932//382 929//382 928//382
f 928//382 931//382 936//382
f 892//431 973//440 972//439
f 972//439 971//439 970//438
f 1011//455 1019//455 1031//407
f 1031//407 1007//407 1008//407
f 1008//407 1005//407 995//407
f 995//407 1030//407 1011//455
f 1011//455 1031//407 1008//407
f 1017//453 1013//455 1029//407
f 1029//407 1004//407 997//407
f 997//407 998//407 1000//407
f 1000//407 1001//407 1017//453
f 1017//453 1029//407 997//407
f 1009//453 1015//453 1006//407
f 1006//407 1003//407 996//407
f 996//407 999//407 994//407
f 994//407 1002//407 1009//453
f 1009//453 1006//407 996//407
f 893//432 980//447 978//445
f 978//445 977//444 979//446
f 1068//395 1064//395 953//435
f 1052//457 1080//395 1076//395
f 1077//461 1079//395 1050//457
f 1049//457 1078//395 1075//460
f 1059//395 1058//459 1081//395
f 1081//395 1083//395 1084//395
f 1084//395 1085//395 1060//395
f 1060//395 1062//395 1063//395
f 1063//395 1059//395 1081//395
f 1081//395 1084//395 1060//395
f 1057//395 1056//395 1082//395
f 1082//395 1087//395 1069//395
f 1069//395 1071//395 1073//395
f 1073//395 1061//395 1057//395
f 1057//395 1082//395 1069//395
f 1067//395 1065//395 1086//395
f 1086//395 1088//395 1066//395
f 1066//395 1072//395 1074//395
f 1074//395 1070//395 1067//395
f 1067//395 1086//395 1066//395
f 1100//463 1102//379 1104//379
f 1090//382 1095//382 1091//382
f 1091//382 1093//382 1108//382
f 1108//382 1098//382 1100//463
f 1100//463 1106//463 1090//382
f 1090//382 1091//382 1108//382
f 1099//462 1105//462 1103//378
f 1089//384 1105//462 1099//462
f 1099//462 1097//384 1107//384
f 1107//384 1094//384 1092//384
f 1092//384 1096//384 1089//384
f 1089//384 1099//462 1107//384
